<?xml version="1.0" encoding="utf-8"?>
<!-- Generator: Adobe Illustrator 25.0.0, SVG Export Plug-In . SVG Version: 6.00 Build 0)  -->
<svg version="1.1" xmlns="http://www.w3.org/2000/svg" xmlns:xlink="http://www.w3.org/1999/xlink" x="0px" y="0px"
	 viewBox="0 0 100 100" style="enable-background:new 0 0 100 100;" xml:space="preserve">
<style type="text/css">
	.st0{display:none;}
	.st1{display:inline;fill:#FFFFFF;}
	.st2{fill:#020202;}
	.st3{fill:#080808;}
	.st4{fill:#060606;}
	.st5{fill:#040404;}
	.st6{fill:#050505;}
</style>
<g id="Layer_1" class="st0">
	<rect x="0.1" y="0.1" class="st1" width="100" height="100"/>
</g>
<g id="Layer_2">
	<path class="st2" d="M28.1,94.4c-0.1-0.3-0.4-0.2-0.6-0.2c-5.5-1.1-9.4-4.4-12.2-9c-2.9-4.8-4.1-10-4.1-15.6c0-4.1,0-8.2,0-12.4
		c0-0.6-0.2-0.9-0.7-1c-5-1.5-8-5.8-7.7-11c0.3-4.8,4-8.8,9-9.7c7.3-1.3,13.8,5.8,11.9,13c-1.1,3.9-3.5,6.5-7.4,7.7
		c-0.5,0.2-0.7,0.4-0.7,1c0,4.2,0,8.5,0,12.7c0,5.1,1.2,9.9,4.1,14.2c2.1,3,4.7,5.2,8.4,5.9c3.5,0.7,6.6-0.2,9.3-2.4
		c3.8-3.1,5.8-7.2,6.8-11.9c0.6-2.7,0.6-5.4,0.6-8.1c0-2.7,0-5.5,0-8.2c0-0.5-0.1-0.8-0.7-0.9c-3.4-0.8-6-2.8-7.7-5.8
		c-4.5-7.7-9-15.5-13.4-23.2c-3.4-5.9-1.7-12.8,4-16.5c1.2-0.8,2.6-1.3,4.1-1.6c0.5-0.1,0.8-0.3,1.1-0.7c1.2-1.6,3.1-2.1,4.9-1.4
		c1.7,0.6,2.8,2.3,2.8,4.1c-0.1,1.9-1.3,3.5-3.2,4c-1.7,0.4-3.2,0-4.3-1.3c-0.4-0.5-0.8-0.5-1.3-0.4c-4.6,1.4-7,6.7-4.7,10.9
		c2.4,4.4,4.9,8.7,7.4,13c2.1,3.6,4.2,7.3,6.3,10.9c2.5,4.2,7.5,5.3,11.4,2.6c1-0.7,1.7-1.6,2.3-2.7c4.4-7.7,8.8-15.4,13.3-23.1
		c2.9-4.9,0.1-10.3-4.3-11.6c-0.6-0.2-1-0.2-1.6,0.4c-1.6,1.8-4.5,1.9-6.2,0.1c-1.7-1.7-1.6-4.5,0.1-6.1c1.8-1.7,4.6-1.5,6.2,0.4
		c0.4,0.5,0.8,0.8,1.4,0.9c7.8,1.4,12.4,10.4,8,17.9c-4.5,7.8-9,15.6-13.5,23.4c-1.7,3-4.3,5-7.7,5.8c-0.5,0.1-0.6,0.3-0.6,0.8
		c0,3.5,0,7,0,10.4c0,5.5-1.2,10.7-4.1,15.5c-2.7,4.3-6.3,7.5-11.3,8.8c-0.6,0.1-1.2,0.1-1.7,0.4C30.6,94.4,29.3,94.4,28.1,94.4z"/>
	<path class="st3" d="M82.5,77.6C78,82.1,73.6,86.5,69.2,91c-1.2,1.2-2.6,1.3-3.9,0c-4.3-4.3-8.5-8.5-12.8-12.8
		c-1.3-1.2-1-2.9,0-3.8c0.9-0.8,1.7-1.7,2.6-2.5c0.2-0.2,0.3-0.4,0.3-0.7c0-5.2,0-10.5,0-15.7c0-0.3-0.1-0.4-0.4-0.4
		c-1.7-0.5-2.8-1.6-3.1-3.3c-0.3-1.6,0.4-3.3,1.9-4.2c1.5-0.9,3.1-0.9,4.5,0.1c0.9,0.6,1.4,1.4,1.6,2.4c0.1,0.3,0.2,0.4,0.5,0.4
		c3.3,0,6.5,0,9.8,0c1.9,0,3.8,0,5.7,0c0.4,0,0.7-0.1,0.9-0.4c0.8-0.9,1.7-1.7,2.6-2.6c1-1,2.5-1,3.5,0c4.3,4.3,8.7,8.7,13,13
		c1.1,1.1,1.1,2.5,0,3.6c-3.7,3.7-7.3,7.3-11,11C84.1,76,83.3,76.8,82.5,77.6z M66.9,62c-4.5,4.5-8.9,8.9-13.4,13.4
		c-0.6,0.6-0.6,1.2,0,1.8c4.3,4.3,8.6,8.6,12.9,12.9c0.6,0.6,1.1,0.6,1.7,0c1.1-1.1,2.1-2.1,3.2-3.2c7.8-7.8,15.6-15.6,23.4-23.4
		c0.8-0.7,0.9-1.3,0-2.2c-4.2-4.2-8.4-8.4-12.7-12.6c-0.6-0.6-1.2-0.6-1.8,0C75.8,53.1,71.3,57.5,66.9,62z M75,51.9
		c-0.2,0-0.3,0-0.3,0c-4.8,0-9.6,0-14.4,0c-0.2,0-0.3,0.1-0.4,0.3c-0.4,1.5-1.4,2.4-2.9,2.9c-0.3,0.1-0.3,0.2-0.3,0.4
		c0,4.7,0,9.5,0,14.2c0,0.1,0,0.3,0.1,0.4C62.9,64.1,68.9,58,75,51.9z M54,53c1.1,1.1,2.8,1.1,3.9,0c1.1-1.1,1.1-2.8,0-3.9
		c-1.1-1.1-2.8-1.1-3.9-0.1C52.9,50.2,52.9,51.9,54,53z"/>
	<path class="st3" d="M79.4,65.7c-0.2-0.2-0.5-0.5-0.7-0.7c-0.9-0.9-1.8-1.8-2.7-2.7c-0.2-0.2-0.3-0.3,0-0.6c0.8-0.8,0.8-0.8,1.6,0
		c1.5,1.5,3.1,3.1,4.6,4.6c0.2,0.2,0.2,0.4,0,0.6c-0.6,0.7-1.2,0.9-2.1,0.6c-1.4-0.4-2.9-0.7-4.4-1.1c-0.1,0-0.2-0.1-0.4-0.1
		c0,0.2,0.2,0.3,0.3,0.4c1,1,2,2.1,3.1,3.1c0.2,0.2,0.2,0.3,0,0.5c-0.8,0.8-0.8,0.8-1.6,0c-1.6-1.6-3.1-3.1-4.7-4.7
		c-0.2-0.2-0.2-0.3,0-0.6c0.9-0.9,0.9-0.9,2.1-0.6C76.1,65.1,77.7,65.5,79.4,65.7C79.3,65.8,79.4,65.8,79.4,65.7z"/>
	<path class="st4" d="M67.5,76.7c1.3-0.1,3.2,0.2,4.4,0.7c-0.4,0.4-0.9,0.9-1.3,1.3c-0.1,0.1-0.3,0.1-0.4,0c-1-0.2-1.9-0.4-2.9-0.6
		c-0.3-0.1-0.5-0.1-0.8,0c-0.4,0.2-0.7,0.4-0.9,0.8c-0.1,0.2,0.3,0.4,0.5,0.6c0.5,0.5,1,1,1.6,1.6c0.2,0.2,0.2,0.3,0,0.5
		c-0.3,0.3-0.6,0.8-1,0.8c-0.4,0-0.6-0.5-0.9-0.8c-1.5-1.5-3-3-4.6-4.5c-0.2-0.2-0.3-0.4,0-0.6c1-0.9,1.9-1.9,2.9-2.8
		c1.4-1.3,3.3-0.8,3.8,0.9C68.2,75.3,68,76,67.5,76.7z M64.1,75.6C64.1,75.6,64.1,75.6,64.1,75.6c-0.3,0.2-0.5,0.5-0.8,0.7
		c-0.1,0.1-0.2,0.2,0,0.4c0.4,0.4,0.7,0.7,1.1,1.1c0.1,0.1,0.2,0.2,0.3,0c0.5-0.5,1.1-1,1.5-1.6c0.3-0.5,0.3-0.9-0.1-1.3
		c-0.4-0.4-0.9-0.4-1.3,0C64.6,75.1,64.4,75.4,64.1,75.6z"/>
	<path class="st5" d="M69.7,73.8c-0.9-0.9-1.7-1.7-2.6-2.6c-0.2-0.2-0.3-0.3,0-0.6c1.3-1.2,2.5-2.5,3.8-3.8c0.2-0.2,0.4-0.2,0.6,0
		c0.7,0.7,0.7,0.7,0,1.4c-0.7,0.7-1.4,1.4-2.1,2.1c-0.2,0.2-0.3,0.3,0,0.6c0.3,0.2,0.5,0.5,0.8,0.8c0.2,0.2,0.3,0.2,0.5,0
		c0.8-0.8,1.6-1.6,2.3-2.4c0.2-0.2,0.3-0.2,0.6,0c0.7,0.7,0.7,0.7,0,1.4c-0.6,0.6-1.3,1.3-1.9,1.9c-0.2,0.2-0.2,0.3,0,0.5
		c0.4,0.3,0.7,0.7,1,1c0.2,0.2,0.3,0.2,0.5,0c0.9-0.9,1.8-1.8,2.6-2.7c0.3-0.3,0.4-0.2,0.6,0c0.7,0.7,0.7,0.7,0,1.4
		c-1.1,1.1-2.3,2.3-3.4,3.4c-0.2,0.2-0.3,0.2-0.6,0C71.5,75.5,70.6,74.7,69.7,73.8C69.7,73.8,69.7,73.8,69.7,73.8z"/>
	<path class="st6" d="M83.9,60.6c0.7,0.7,1.4,1.4,2.1,2.1c0.2,0.2,0.2,0.3,0,0.5c-0.3,0.3-0.6,0.8-0.9,0.8c-0.4,0-0.6-0.5-0.9-0.8
		c-1.2-1.2-2.4-2.4-3.6-3.6c-0.3-0.3-0.4-0.2-0.6,0c-0.4,0.4-0.8,0.8-1.2,1.2c-0.2,0.2-0.3,0.2-0.4,0c-0.8-0.7-0.8-0.7,0-1.5
		c1.2-1.2,2.4-2.4,3.6-3.6c0.2-0.2,0.3-0.2,0.5,0c0.7,0.7,0.7,0.7,0,1.4c-0.2,0.2-0.5,0.5-0.7,0.7c-0.2,0.2-0.2,0.3,0,0.5
		C82.4,59.2,83.2,59.9,83.9,60.6z"/>
</g>
</svg>
