<?xml version="1.0" encoding="utf-8"?>
<!-- Generator: Adobe Illustrator 25.0.0, SVG Export Plug-In . SVG Version: 6.00 Build 0)  -->
<svg version="1.1" xmlns="http://www.w3.org/2000/svg" xmlns:xlink="http://www.w3.org/1999/xlink" x="0px" y="0px"
	 viewBox="0 0 100 100" style="enable-background:new 0 0 100 100;" xml:space="preserve">
<style type="text/css">
	.st0{display:none;}
	.st1{display:inline;fill:#FFFFFF;}
	.st2{display:inline;fill:#020202;}
	.st3{display:inline;fill:#080808;}
	.st4{display:inline;fill:#060606;}
	.st5{display:inline;fill:#040404;}
	.st6{display:inline;fill:#050505;}
	.st7{display:inline;}
	.st8{fill:#070707;}
	.st9{fill:#080808;}
	.st10{fill:#0A0A0A;}
	.st11{fill:#010101;}
	.st12{fill:#020202;}
</style>
<g id="Layer_1" class="st0">
	<rect x="0.1" y="0.1" class="st1" width="100" height="100"/>
</g>
<g id="Layer_2" class="st0">
	<path class="st2" d="M28.1,94.4c-0.1-0.3-0.4-0.2-0.6-0.2c-5.5-1.1-9.4-4.4-12.2-9c-2.9-4.8-4.1-10-4.1-15.6c0-4.1,0-8.2,0-12.4
		c0-0.6-0.2-0.9-0.7-1c-5-1.5-8-5.8-7.7-11c0.3-4.8,4-8.8,9-9.7c7.3-1.3,13.8,5.8,11.9,13c-1.1,3.9-3.5,6.5-7.4,7.7
		c-0.5,0.2-0.7,0.4-0.7,1c0,4.2,0,8.5,0,12.7c0,5.1,1.2,9.9,4.1,14.2c2.1,3,4.7,5.2,8.4,5.9c3.5,0.7,6.6-0.2,9.3-2.4
		c3.8-3.1,5.8-7.2,6.8-11.9c0.6-2.7,0.6-5.4,0.6-8.1c0-2.7,0-5.5,0-8.2c0-0.5-0.1-0.8-0.7-0.9c-3.4-0.8-6-2.8-7.7-5.8
		c-4.5-7.7-9-15.5-13.4-23.2c-3.4-5.9-1.7-12.8,4-16.5c1.2-0.8,2.6-1.3,4.1-1.6c0.5-0.1,0.8-0.3,1.1-0.7c1.2-1.6,3.1-2.1,4.9-1.4
		c1.7,0.6,2.8,2.3,2.8,4.1c-0.1,1.9-1.3,3.5-3.2,4c-1.7,0.4-3.2,0-4.3-1.3c-0.4-0.5-0.8-0.5-1.3-0.4c-4.6,1.4-7,6.7-4.7,10.9
		c2.4,4.4,4.9,8.7,7.4,13c2.1,3.6,4.2,7.3,6.3,10.9c2.5,4.2,7.5,5.3,11.4,2.6c1-0.7,1.7-1.6,2.3-2.7c4.4-7.7,8.8-15.4,13.3-23.1
		c2.9-4.9,0.1-10.3-4.3-11.6c-0.6-0.2-1-0.2-1.6,0.4c-1.6,1.8-4.5,1.9-6.2,0.1c-1.7-1.7-1.6-4.5,0.1-6.1c1.8-1.7,4.6-1.5,6.2,0.4
		c0.4,0.5,0.8,0.8,1.4,0.9c7.8,1.4,12.4,10.4,8,17.9c-4.5,7.8-9,15.6-13.5,23.4c-1.7,3-4.3,5-7.7,5.8c-0.5,0.1-0.6,0.3-0.6,0.8
		c0,3.5,0,7,0,10.4c0,5.5-1.2,10.7-4.1,15.5c-2.7,4.3-6.3,7.5-11.3,8.8c-0.6,0.1-1.2,0.1-1.7,0.4C30.6,94.4,29.3,94.4,28.1,94.4z"/>
	<path class="st3" d="M82.5,77.6C78,82.1,73.6,86.5,69.2,91c-1.2,1.2-2.6,1.3-3.9,0c-4.3-4.3-8.5-8.5-12.8-12.8
		c-1.3-1.2-1-2.9,0-3.8c0.9-0.8,1.7-1.7,2.6-2.5c0.2-0.2,0.3-0.4,0.3-0.7c0-5.2,0-10.5,0-15.7c0-0.3-0.1-0.4-0.4-0.4
		c-1.7-0.5-2.8-1.6-3.1-3.3c-0.3-1.6,0.4-3.3,1.9-4.2c1.5-0.9,3.1-0.9,4.5,0.1c0.9,0.6,1.4,1.4,1.6,2.4c0.1,0.3,0.2,0.4,0.5,0.4
		c3.3,0,6.5,0,9.8,0c1.9,0,3.8,0,5.7,0c0.4,0,0.7-0.1,0.9-0.4c0.8-0.9,1.7-1.7,2.6-2.6c1-1,2.5-1,3.5,0c4.3,4.3,8.7,8.7,13,13
		c1.1,1.1,1.1,2.5,0,3.6c-3.7,3.7-7.3,7.3-11,11C84.1,76,83.3,76.8,82.5,77.6z M66.9,62c-4.5,4.5-8.9,8.9-13.4,13.4
		c-0.6,0.6-0.6,1.2,0,1.8c4.3,4.3,8.6,8.6,12.9,12.9c0.6,0.6,1.1,0.6,1.7,0c1.1-1.1,2.1-2.1,3.2-3.2c7.8-7.8,15.6-15.6,23.4-23.4
		c0.8-0.7,0.9-1.3,0-2.2c-4.2-4.2-8.4-8.4-12.7-12.6c-0.6-0.6-1.2-0.6-1.8,0C75.8,53.1,71.3,57.5,66.9,62z M75,51.9
		c-0.2,0-0.3,0-0.3,0c-4.8,0-9.6,0-14.4,0c-0.2,0-0.3,0.1-0.4,0.3c-0.4,1.5-1.4,2.4-2.9,2.9c-0.3,0.1-0.3,0.2-0.3,0.4
		c0,4.7,0,9.5,0,14.2c0,0.1,0,0.3,0.1,0.4C62.9,64.1,68.9,58,75,51.9z M54,53c1.1,1.1,2.8,1.1,3.9,0c1.1-1.1,1.1-2.8,0-3.9
		c-1.1-1.1-2.8-1.1-3.9-0.1C52.9,50.2,52.9,51.9,54,53z"/>
	<path class="st3" d="M79.4,65.7c-0.2-0.2-0.5-0.5-0.7-0.7c-0.9-0.9-1.8-1.8-2.7-2.7c-0.2-0.2-0.3-0.3,0-0.6c0.8-0.8,0.8-0.8,1.6,0
		c1.5,1.5,3.1,3.1,4.6,4.6c0.2,0.2,0.2,0.4,0,0.6c-0.6,0.7-1.2,0.9-2.1,0.6c-1.4-0.4-2.9-0.7-4.4-1.1c-0.1,0-0.2-0.1-0.4-0.1
		c0,0.2,0.2,0.3,0.3,0.4c1,1,2,2.1,3.1,3.1c0.2,0.2,0.2,0.3,0,0.5c-0.8,0.8-0.8,0.8-1.6,0c-1.6-1.6-3.1-3.1-4.7-4.7
		c-0.2-0.2-0.2-0.3,0-0.6c0.9-0.9,0.9-0.9,2.1-0.6C76.1,65.1,77.7,65.5,79.4,65.7C79.3,65.8,79.4,65.8,79.4,65.7z"/>
	<path class="st4" d="M67.5,76.7c1.3-0.1,3.2,0.2,4.4,0.7c-0.4,0.4-0.9,0.9-1.3,1.3c-0.1,0.1-0.3,0.1-0.4,0c-1-0.2-1.9-0.4-2.9-0.6
		c-0.3-0.1-0.5-0.1-0.8,0c-0.4,0.2-0.7,0.4-0.9,0.8c-0.1,0.2,0.3,0.4,0.5,0.6c0.5,0.5,1,1,1.6,1.6c0.2,0.2,0.2,0.3,0,0.5
		c-0.3,0.3-0.6,0.8-1,0.8c-0.4,0-0.6-0.5-0.9-0.8c-1.5-1.5-3-3-4.6-4.5c-0.2-0.2-0.3-0.4,0-0.6c1-0.9,1.9-1.9,2.9-2.8
		c1.4-1.3,3.3-0.8,3.8,0.9C68.2,75.3,68,76,67.5,76.7z M64.1,75.6C64.1,75.6,64.1,75.6,64.1,75.6c-0.3,0.2-0.5,0.5-0.8,0.7
		c-0.1,0.1-0.2,0.2,0,0.4c0.4,0.4,0.7,0.7,1.1,1.1c0.1,0.1,0.2,0.2,0.3,0c0.5-0.5,1.1-1,1.5-1.6c0.3-0.5,0.3-0.9-0.1-1.3
		c-0.4-0.4-0.9-0.4-1.3,0C64.6,75.1,64.4,75.4,64.1,75.6z"/>
	<path class="st5" d="M69.7,73.8c-0.9-0.9-1.7-1.7-2.6-2.6c-0.2-0.2-0.3-0.3,0-0.6c1.3-1.2,2.5-2.5,3.8-3.8c0.2-0.2,0.4-0.2,0.6,0
		c0.7,0.7,0.7,0.7,0,1.4c-0.7,0.7-1.4,1.4-2.1,2.1c-0.2,0.2-0.3,0.3,0,0.6c0.3,0.2,0.5,0.5,0.8,0.8c0.2,0.2,0.3,0.2,0.5,0
		c0.8-0.8,1.6-1.6,2.3-2.4c0.2-0.2,0.3-0.2,0.6,0c0.7,0.7,0.7,0.7,0,1.4c-0.6,0.6-1.3,1.3-1.9,1.9c-0.2,0.2-0.2,0.3,0,0.5
		c0.4,0.3,0.7,0.7,1,1c0.2,0.2,0.3,0.2,0.5,0c0.9-0.9,1.8-1.8,2.6-2.7c0.3-0.3,0.4-0.2,0.6,0c0.7,0.7,0.7,0.7,0,1.4
		c-1.1,1.1-2.3,2.3-3.4,3.4c-0.2,0.2-0.3,0.2-0.6,0C71.5,75.5,70.6,74.7,69.7,73.8C69.7,73.8,69.7,73.8,69.7,73.8z"/>
	<path class="st6" d="M83.9,60.6c0.7,0.7,1.4,1.4,2.1,2.1c0.2,0.2,0.2,0.3,0,0.5c-0.3,0.3-0.6,0.8-0.9,0.8c-0.4,0-0.6-0.5-0.9-0.8
		c-1.2-1.2-2.4-2.4-3.6-3.6c-0.3-0.3-0.4-0.2-0.6,0c-0.4,0.4-0.8,0.8-1.2,1.2c-0.2,0.2-0.3,0.2-0.4,0c-0.8-0.7-0.8-0.7,0-1.5
		c1.2-1.2,2.4-2.4,3.6-3.6c0.2-0.2,0.3-0.2,0.5,0c0.7,0.7,0.7,0.7,0,1.4c-0.2,0.2-0.5,0.5-0.7,0.7c-0.2,0.2-0.2,0.3,0,0.5
		C82.4,59.2,83.2,59.9,83.9,60.6z"/>
</g>
<g id="Layer_3" class="st0">
	<g class="st7">
		<path class="st8" d="M97.1,57.1c0.2,1,0.2,2,0,3c-0.4,0.6-0.8,1.4-1.3,1.9c-9.3,9-18.9,17.5-29.7,24.8c-8.5,5.8-17.5,6.9-27.1,3.9
			c-4.1-1.3-8.1-2.7-12.4-3.5c-2-0.4-3.9-0.5-6-0.2c-0.8,0.1-1.2,0.3-1.5,1.2c-1.1,3.2-3.1,4.6-6.4,4.6c-1.4,0-2.7,0-4.1,0
			c-3.3-0.1-5.9-2.6-5.9-6c-0.1-6.9-0.1-13.7,0-20.6c0-3.1,2.5-5.7,5.5-5.9c1.9-0.1,3.8-0.1,5.6,0c1.6,0.1,3,0.8,3.9,2.1
			c0.7,1,1.1,0.7,1.9,0.1c8.1-6.3,15.9-6.6,24.5-0.8c0.9,0.6,1.9,0.8,3,0.8c4.1,0,8.1,0,12.2,0c3.2,0,5.6,1.2,6.6,4.4
			c0.4,1.2,0.9,0.5,1.4,0.2c7.4-4,14.8-8.1,22.2-12.1C92.9,53,95.3,53.7,97.1,57.1z M50.4,74.3C50.4,74.3,50.4,74.3,50.4,74.3
			c-3.4,0-6.8,0-10.2,0c-1.3,0-2.3-0.5-2.3-1.8c0-1.4,1-1.8,2.3-1.8c0.4,0,0.7,0,1.1,0c6,0,12.1,0,18.1,0c0.8,0,1.7,0,2.3-0.6
			c0.8-0.7,1.1-1.6,0.7-2.5c-0.4-1.2-1.5-1.6-2.7-1.6c-4.2,0-8.5,0-12.7,0c-1.8,0-3.4-0.5-5-1.5c-7.6-5.2-15.5-4.3-21.9,2.3
			c-0.5,0.5-0.8,0.9-0.8,1.7c0,4.6,0,9.3,0,13.9c0,0.9,0.3,1,1.1,0.9c1.7-0.3,3.5-0.2,5.3,0c5.1,0.7,10,2.5,14.9,4
			c8.4,2.5,16,1.4,23.3-3.6c10.5-7.1,19.9-15.3,28.9-24.1c0.5-0.5,1.1-1,0.5-1.8c-0.7-0.9-1.3-0.4-2,0C82,63.2,72.6,68.3,63.2,73.5
			c-1,0.6-2.1,0.8-3.2,0.8C56.8,74.3,53.6,74.3,50.4,74.3z M15.8,76.6C15.8,76.6,15.8,76.6,15.8,76.6c0-3.3,0-6.7,0-10
			c0-1.6-1-2.7-2.6-2.7c-1.4-0.1-2.8-0.1-4.2,0c-1.6,0.1-2.6,1-2.6,2.7c0,6.6,0,13.3,0,19.9c0,1.7,1,2.7,2.8,2.7c1.3,0,2.6,0,3.9,0
			c1.9,0,2.8-1,2.8-2.8C15.8,83.1,15.8,79.9,15.8,76.6z"/>
		<path class="st9" d="M79.7,24.2c0,3.9-1.1,7.4-3.5,10.5C69,43.9,61.1,52.4,52.5,60.3c-1.2,1.1-2.2,1.1-3.4,0
			c-8.6-7.9-16.7-16.4-23.7-25.7c-7.4-9.8-2.3-24.4,9.4-27c5.4-1.2,10.1,0.5,14.4,3.5c1.2,0.8,1.9,0.9,3.1,0c4.3-3,9.1-4.7,14.4-3.6
			C74.3,9.2,79.7,16.3,79.7,24.2z M25.6,24.2c0,3.4,1.2,6.3,3.2,8.9c6.4,8.1,13.4,15.6,20.8,22.7c0.9,0.9,1.4,0.9,2.4,0
			c6.9-6.6,13.4-13.6,19.5-21.1c1.1-1.4,2.4-2.8,3.1-4.4c2.2-4.7,2-9.4-0.9-13.7c-2.7-4-6.4-6.2-11.3-5.7c-3.8,0.4-7,2.2-9.9,4.6
			c-1.2,1-2.2,1.1-3.4,0c-1.5-1.4-3.2-2.4-5-3.2C33.7,7.3,25.4,16.1,25.6,24.2z"/>
		<path class="st9" d="M63.1,32.2c0,1.2,0,2.5,0,3.7c0,1.6-0.7,2.3-2.3,2.2c-1.2,0-2.3,0.1-3.5,0c-0.9-0.1-1.1,0.3-1.1,1.1
			c0.1,1.1,0,2.1,0,3.2c0,1.4-0.6,2.1-2,2.1c-2.2,0-4.5,0-6.7,0c-1.4,0-2-0.7-2.1-2.1c0-0.2,0-0.5,0-0.7c0-3.6,0-3.6-3.5-3.6
			c-3.7,0-3.8,0-3.8-3.9c0-1.9,0-3.8,0-5.6c0-1.5,0.7-2.3,2.3-2.2c1.2,0,2.5-0.1,3.7,0c1.1,0.1,1.4-0.4,1.3-1.4
			c-0.2-5.9,0.2-5.2,5.3-5.2c1,0,2,0,3,0c1.9,0,2.4,0.6,2.5,2.6c0.1,4,0.1,4,4,4c2.5,0,2.9,0.4,2.9,2.8
			C63.1,30.2,63.1,31.2,63.1,32.2z M45,29.9c-0.8,0-1.5,0-2.3,0c-0.5,0-0.7,0.1-0.8,0.6c-0.7,3,0,3.9,3,3.9c4.2,0,4.3,0,4.2,4.3
			c0,1.4,0,2.3,1.9,2.2c1.5-0.1,1.8-0.5,1.7-1.8c-0.1-0.8,0-1.6,0-2.5c0-1.4,0.7-2.2,2.2-2.2c1.2,0,2.5,0,3.7,0
			c0.3,0,0.9,0.1,0.9-0.3c0.1-1.3,0.3-2.6,0-3.8C59.2,29.4,58,30,57.3,30c-4.6-0.1-4.7,0-4.5-4.5c0.1-1.7-0.4-2.1-2.1-2.1
			c-2.2,0-1.4,1.4-1.4,2.4C49.1,29.9,49.2,29.9,45,29.9z"/>
		<path class="st10" d="M63,14.1c5.7,0.1,9.7,3.9,10.7,9.9c0.2,1.4,0.9,3-1.2,3.6c-1.3,0.4-1.9-0.4-2.3-3c-0.8-4.7-2.9-6.7-7.5-7
			c-1.9-0.2-1.3-1.9-1.4-2.8C61,13.4,62.6,14.6,63,14.1z"/>
	</g>
</g>
<g id="Layer_4" class="st0">
	<g class="st7">
		<path d="M85.7,41.8c0.1,2.7,0.1,5.4,0,8.2c-0.5,0.7-0.5,1.4,0,2.1c0,4.1,0,8.2,0,12.3c-0.5,0.8-0.5,1.6,0,2.3
			c0.1,1.3,0.1,2.5,0,3.8c-0.5,0.7-0.4,1.4,0,2.1c0,1.4,0.1,2.8,0.1,4.2c0,0.8,0.3,1,1.1,1c0.9,0,1.9,0.1,2.8,0.1
			c0.7,0,0.9,0.3,0.9,0.9c0,1.1,0.1,2.2,0,3.3c-0.1,0.8,0.3,1,1,1c1,0,2,0,3.1,0c0.7,0,1.1,0.3,1.1,1.1c0,0.8,0,1.6,0,2.4
			c-0.4,0.1-0.5,0.4-0.6,0.8c0,1.8,0,3.5,0,5.3c0,0.4,0.2,0.6,0.6,0.6c0,0.2,0,0.3,0,0.5c-0.1,0.1-0.2,0.2-0.4,0.3
			c-0.5-0.1-0.8,0.1-0.7,0.6c-0.2,0-0.4,0-0.5,0c0-0.4,0.1-1-0.4-0.9c-2,0.3-3.5-1.4-5.5-1.1c0.3-0.5,0.8,0,1.1-0.5
			c-0.5,0-1,0-1.4,0c-6.4,0-12.7,0-19.1,0c-0.5,0-0.9,0.2-1.3-0.2c0.5,0,0.9-0.1,1.4-0.1c7.6,0,15.3-0.1,22.9,0c1,0,1.4-0.2,1.3-1.3
			c-0.1-1.1-0.1-2.3,0-3.5c0-0.8-0.2-1.1-1.1-1.1c-1.1,0-2.3,0-3.4-0.1c0-0.5-0.2-0.7-0.7-0.7c-0.4,0-0.6,0.2-0.6,0.6
			c-0.4,0.1-0.9,0.2-1.3,0c-0.1-1.2-1.3-0.2-1.8-0.8c0.7,0,1.3-0.1,1.6-0.8c-0.8,0-1.4,0-2,0c-0.6,0-0.9-0.1-0.9-0.8
			c0-0.1,0-0.3,0-0.4c0.3,0,0.7,0,1,0c0.4,0.7,0.9,0.7,1.3,0c0.8,0,1.7-0.1,2.5-0.1c0.7,0.4,1.5,0.4,2.2,0.2c0-0.1,0-0.3,0-0.4
			c-0.7,0-1.4,0-2.1,0c-0.2-1.8-0.2-1.8-2.1-1.9c-5.1-0.1-10.1,0.2-15.2-0.2c-0.2-0.1-0.3-0.3,0-0.5c0.2-0.1,0.5,0,0.7-0.1
			c0.3-0.1,0.9-0.1,0.9-0.5c0-0.4-0.5-0.6-0.7-0.8c-0.5-0.4-1.2-0.2-1.7-0.7c0.5-0.1,1.1,0.2,1.6-0.3c0.3,0,0.7-0.1,1-0.1
			c0.3,0.3,0.5,0,0.6-0.2c0.1-0.2-0.1-0.4-0.3-0.4c0-1.9-0.1-3.7-0.1-5.6c0-11,0-22.1,0-33.1c0-1-0.2-1.5-1.4-1.4
			c-1.3,0.1-2.6,0-3.8-0.1c-0.4-0.4-0.8-0.4-1.3,0c-0.9-0.1-1.3,0.2-1.6,1.1c-1,3.9-3.3,7-6.8,9.1c-0.9,0.5-1.2,1.1-1.2,2.2
			c0,6.9,0,13.7,0,20.6c0,2.6-0.2,5.2,0.1,7.8c-0.4,0-0.4,1-1,0.4c-0.4-0.4-0.5-1,0-1.3c0.5-0.3,0.5-0.8,0.5-1.2
			c-0.1-1.2,0.3-2.5-0.4-3.6c-0.2-0.3-0.1-0.7,0.1-1c0.4-0.6,0.4-1.2,0.3-1.9c-0.5-3.2,0.1-6.4-0.4-9.7c-0.4-2.8,0.5-5.7,0-8.5
			c-0.3-1.6-0.9-2.1-2.2-1.5c-0.4-0.1-0.8-0.1-1.2-0.2c-1.3-0.8-2.3-0.7-2.8,0.1c-0.5,0.1-1,0.1-1.5-0.1c-0.5-0.5-0.9-0.9-1.3,0.1
			l0,0.1l-0.1,0c-0.6,0.3-0.4,0.9-0.4,1.4c0,3.7,0,7.5,0,11.2c-0.8-0.2-0.5-0.8-0.5-1.3c0-3.2,0-6.4,0-9.6c0-2.6-1-4.6-3.2-5.9
			c-0.5-0.3-1-0.7-0.9-1.4c0.6,0.1,1.1,0.7,1.8,0.5c1,0.5,2.1,1,3.1,1.5c0,0.2,0,0.4,0.2,0.4c0.1,0,0.2-0.2,0.3-0.3
			c0.9,0.1,1.7,0.2,2.6,0.3c-0.6,0.9,0.1,0.9,0.6,0.8c0.7-0.2,1.3-0.2,2-0.1c0.8,0,1.2-0.3,1.2-1.1c0.3-0.1,0.5-0.1,0.8-0.2
			c0.4,0.5,0.8,0.2,1.3,0c0.5-0.3,1.1-0.7,1.6-1c0,0,0.1,0,0.1,0.1c0,0-0.1,0-0.1-0.1c0-0.1-0.1-0.3-0.1-0.4
			c4.6-3.8,6.2-8.8,4.4-13.8c-0.8-2.3-2.4-4-4.1-5.6c0-0.3,0.4-0.5-0.1-1c-0.7-0.7-1.6-1-2.2-1.8c-0.9-1.3-2.4-1.4-3.7-1.5
			c-0.8-0.1-1.6,0-2.4,0c-1.6,0-3,0.4-3.9,1.9c-0.3,0.4-0.6,1.2-1.1,1.1c-1.4-0.2-0.8,0.6-0.6,1.2c-1.9,1.8-3.6,3.6-4.4,6.1
			c-1,3.2-0.6,6.4,0.8,9.4c0,0.3-0.2,0.6-0.5,0.6c-0.2-0.4-1.1,0.4-1-0.5c0.1-1.1-0.5-1.8-1.5-1.8c-0.3,0-0.6,0-0.9,0
			c-0.3-0.5-0.2-1.1-0.7-1.5c-0.8-0.5-1.6-0.5-2.3,0c-0.7,0.2-1.3,0.1-2,0c-0.7-0.9-2.4-0.8-3.1,0.2c0,0.1,0,0.2-0.1,0.2
			c-0.1,0-0.2,0.1-0.3,0.1c0.1,0,0.2,0.1,0.3,0.1c0.1,2.6,0.1,5.1,0,7.7c-0.8-1.5-0.6-3.1-0.8-4.7c-0.1-1,0.1-2.2,0.1-3.3
			c0-1-0.4-0.6-0.8-0.2c-0.3,0-0.5,0-0.8,0c-0.2-0.4-0.5-0.1-0.7,0c-2.3-0.1-4.6-0.1-6.8-0.2c-1-0.2-2-0.1-3,0
			c-0.4-0.3-0.8-0.3-1.3-0.3c-0.9-0.4-1.8-0.9-2.9-0.5c-1,0.4-1.9-0.5-2.9-0.6c-0.3,0-0.3-0.4-0.2-0.6c0.3-0.6,2.7-1.6,3.4-1.4
			c0.1,0.2,0.3,0.3,0.5,0.3c0.1,0,0.2,0,0.3,0c0,0.1,0,0.2,0,0.3c1.6,0.6,3.3,0,4.9,0.5c-1.3,0-2.7,0-4,0c1.9-0.5,3.1,1.3,4.7,1.6
			c0.3-1.9,0.3-1.9,2.2-1.9c1.1,0,2.2,0,3.3,0c0.5,0.4,1,0.4,1.5,0c1.2,0,2.4,0,3.6,0c0.3,0.3,0.5,0.3,0.8,0c0-0.2,0-0.3,0-0.5
			c0.9-0.1,1.9-0.1,2.8,0c0,0.4,0.1,0.8,0.6,0.8c0.8,0,1.5,0,2.3,0c0.7,0,0.7-0.5,0.7-0.9l0.1,0c0.3-0.1,0.5-0.2,0.2-0.5
			c0.2-2.7,1.3-5.1,2.8-7.3c1.4-2,3.1-3.7,5.4-4.6c0.1,0.3-0.1,0.7,0.2,0.9c0.4,0.2,0.7-0.3,1-0.4c0.6-0.2,0.1-0.8,0.3-1.2
			c0.1-0.1,0.1-0.2,0.2-0.2c4.5-1.4,8.9-1.1,13,1.4c4,2.5,6.1,6.2,6.9,10.7c0.2,1.1,0.7,1.4,1.8,1.4c3.7-0.1,7.3,0,11,0
			c0.1,0.1,0.2,0.2,0.3,0.2c2.5,0,5,0,7.5,0c0.1,0,0.3-0.2,0.4-0.3c0.3,0,0.7,0,1,0c0,0.7,0.3,1.1,1,0.6c0.4-0.3,1-0.2,1.4-0.5
			c1.2,0.3,2.7-0.4,3.6,0.9c0.2,0.2,0.6,0.4,0.3,0.7c-0.3,0.4-0.6,0-0.9-0.2c-0.6-0.6-1.3-0.8-2.4-0.4c0.8,0.5,1.1,1.2,1.9,1.5
			c-1.4,0.3-2.7-0.2-3.9,0.3c0,0.1,0,0.2,0,0.3c-0.7,0.1-1.4,0.1-2.1,0.2c-0.2,0-0.4,0.2-0.4,0.4c-1,4-0.3,8.1-0.3,12.2
			c0-3.2,0-6.5,0-9.9C85.6,40.6,85,41.3,85.7,41.8z M82.7,37.1c-0.1,0-0.1,0-0.1-0.1c-0.9-0.6-1.7-0.5-2.6-0.1c-1,0-2.1,0.2-3.1,0.1
			c-1.1-0.1-1.3,0.3-1.3,1.4c0,11.1,0,22.2,0,33.2c0,1.7-0.1,3.3-0.1,5c-0.4,0.2-0.4,0.4,0.1,0.5c0.1,0.7,0.7,0.5,1.1,0.5
			c2,0,4,0,6,0c0.6-0.1,0.5-0.5,0.5-0.9c0-0.7,0-1.5,0-2.2c0.4-0.4,0.3-0.9,0.3-1.3c0-11.5,0-23.1,0-34.6c0-0.4,0.2-0.9-0.2-1.2
			C83,37.3,82.8,37.2,82.7,37.1z M34.3,35.1c0,0,0-0.1-0.1-0.1c-1.8,0-3.7,0-5.5,0c0,0,0,0.1,0,0.1C30.6,35.1,32.4,35.1,34.3,35.1z
			 M79.4,34.5c0,0,0-0.1,0-0.1c-0.7,0-1.5,0-2.2,0c0,0,0,0.1,0,0.1C77.9,34.5,78.7,34.5,79.4,34.5z M65.7,34.6
			c0,0.2,0.2,0.4,0.4,0.4c0.2,0.1,0.5,0,0.4-0.3c0-0.2-0.2-0.4-0.4-0.4C65.9,34.4,65.8,34.4,65.7,34.6z M81.8,36.3c0,0,0-0.1,0-0.1
			c-0.6,0-1.1,0-1.7,0c0,0,0,0.1,0,0.1C80.6,36.3,81.2,36.3,81.8,36.3z M67.7,36.2c0,0,0,0.1,0,0.1c0.6,0,1.2,0,1.8,0
			c0,0,0-0.1,0-0.1C68.9,36.2,68.3,36.2,67.7,36.2z M19.9,36.3c0.8,0.1,1.3,0.1,2.1-0.1C21.2,36.1,20.7,36,19.9,36.3z M86.2,34.9
			c0.5,0.1,1,0.4,1.6,0C87.1,34.9,86.7,34.9,86.2,34.9z M27.7,35.6c-0.2,0-0.4,0-0.4,0.2c-0.1,0.2,0.2,0.3,0.3,0.3
			c0.2,0,0.4,0,0.4-0.2C28,35.7,27.8,35.7,27.7,35.6z M85.3,34.4c-0.4,0-0.8,0-1.2,0C84.5,34.6,84.9,34.6,85.3,34.4z M72.5,34.6
			c0-0.1,0-0.1,0.1-0.2c-0.1,0-0.2-0.1-0.3-0.1c-0.1,0-0.4-0.1-0.4,0.2C71.9,34.6,72.3,34.6,72.5,34.6z M73.2,78.7
			c0.1,0,0.2,0.1,0.2,0.1c0.1,0,0.1-0.1,0.1-0.2c-0.1,0-0.2-0.1-0.2-0.1C73.2,78.6,73.2,78.7,73.2,78.7z"/>
		<path d="M67.4,92c0.4,0.4,0.9,0.2,1.3,0.2c6.4,0,12.7,0,19.1,0c0.4,0,0.9,0,1.4,0c-0.3,0.5-0.8,0.1-1.1,0.5c2-0.4,3.5,1.3,5.5,1.1
			c0.5-0.1,0.4,0.5,0.4,0.9c-0.9,0-1.9,0-2.8,0c-1.1-0.3-2.2-0.3-3.3,0c-6.2,0-12.5,0.1-18.7,0.1c-17.9,0-35.9,0-53.8,0
			c-0.5,0-0.9,0-1.4,0c-0.8-0.4-1.7-0.2-2.5-0.2c-2.2,0.1-4.3-0.3-6.5,0.2c-0.2,0-0.3-0.1-0.5-0.1c0-0.2-0.1-0.3-0.3-0.3
			c-0.2-2.5,0-4.9-0.1-7.4c0.6-0.7,0.1-1.6,0.6-2.3c0.6-0.1,0.8,0.2,0.8,0.8c-0.1,1.3,0.1,2.6-0.2,3.9c-0.4,1.6,0.4,3.2,1.7,3.6
			c0-0.3-1.3-0.8,0-0.9c5,0,10.1,0,15.1,0c0.6,0.7,1.2,0.7,1.8,0c0.5,0,0.9-0.1,1.4-0.1c7.5,0,15,0,22.5,0C54.5,92,60.9,92,67.4,92z
			 M59.8,94.1c0,0,0,0.1-0.1,0.1c10.7,0,21.3,0,32,0c0,0,0-0.1,0-0.1C81.1,94.1,70.4,94.1,59.8,94.1z"/>
		<path d="M88,36.6c1.2-0.6,2.5-0.1,3.9-0.3c-0.9-0.3-1.1-1-1.9-1.5c1.1-0.4,1.8-0.2,2.4,0.4c0.2,0.2,0.6,0.6,0.9,0.2
			c0.3-0.3-0.2-0.5-0.3-0.7c-0.9-1.4-2.4-0.6-3.6-0.9c0-0.3-0.1-0.5-0.4-0.5c-0.2-0.1-0.4-0.2-0.6-0.3c-6.4-4.1-12.9-8.3-19.3-12.4
			c-6-3.9-12-7.9-18-11.8c0.3-0.1,0.8-0.1,0.3-0.6c-0.4-0.4-0.9-0.6-0.9-1.3c0.9-0.3,0.4-1,0.5-1.5c2.3,1.4,4.6,2.7,6.8,4.2
			c12.3,8,24.7,16,37,24c0.5,0.3,0.9,0.6,1.2,1.1c0,0.4,0,0.7,0,1.1c0,0.3-0.2,0.5-0.4,0.6c-0.6,0.2-1.1,0.3-1.7,0.3
			C91.7,36.6,89.8,36.6,88,36.6z"/>
		<path d="M14,28.1c4.1-2.7,8.3-5.4,12.4-8.1c7.1-4.6,14.1-9.1,21.2-13.7c0,0.2-0.2,0.6,0.3,0.6c0.4,0.3,0.1,0.5,0,0.8
			c-2,0.8-3.7,2.1-5.5,3.3c-0.1,0.1-0.1,0.1-0.2,0.2c-0.6,0.3-1.2,0.5-1.5,1.1l0,0c-1.6,0.6-2.8,1.8-4.2,2.7
			c-0.1,0.1-0.1,0.3-0.1,0.5c-0.2,0.3-0.4,0.5-0.7,0.5c-0.7-0.4-1,0.1-1.4,0.5c-0.3,0-0.5,0.2-0.5,0.5c-0.4,0.1-0.8,0.1-0.8,0.6
			c-0.1,0-0.1,0-0.2,0c-0.1,0.1-0.2,0.2-0.3,0.3c-0.1,0.1-0.1,0.1-0.2,0.2c-0.4,0-0.6,0.2-0.8,0.5l0,0c-0.5,0-0.9,0.3-1.1,0.8
			l-0.1,0c-0.5,0-0.9,0.1-1.1,0.5c-0.1,0.1-0.1,0.1-0.2,0.2c-1,0.4-1.9,0.9-2.6,1.8l0,0c-1,0-1.6,0.4-2.1,1.3l0,0
			c-0.1,0.1-0.2,0.2-0.3,0.3c-0.1,0-0.1,0-0.2,0c-0.4,0-0.7,0.2-0.8,0.5l0,0c-0.5,0.1-1,0.3-1.3,0.8l0,0c-0.3,0.1-0.4,0.3-0.5,0.5
			l0,0c-0.3,0-0.5,0.2-0.5,0.5c-0.1,0-0.1,0-0.2,0c-0.8,0-1.4,0.3-1.8,1l0,0c-0.3,0-0.5,0.2-0.5,0.5l0,0c-0.2,0-0.4,0-0.5,0.3l0,0
			c-1-0.4-1.4,0.8-2.3,0.8c-0.5,0-0.5,0.4-0.5,0.8C13.7,29.5,14.1,28.5,14,28.1z"/>
		<path d="M14,28.1c0.1,0.4-0.3,1.3,0.8,0.8c0,0,0,0,0,0c0,0.1,0,0.2,0,0.2c-0.8,0.7-1.6,1.4-2.6,1.9c-0.7,0.4-2.3,0.6-1.5,2.2
			c0,0.1,0,0.2-0.1,0.3c-0.8-0.2-3.1,0.8-3.4,1.4c-0.1,0.3-0.1,0.6,0.2,0.6c1,0.1,1.9,0.9,2.9,0.6c1.1-0.4,2,0.1,2.9,0.5
			c-1.8,0.1-3.6-0.2-5.4,0.2c-0.9,0.1-1.9,0.1-2.8,0c-0.3-0.7-1-1.3-0.8-2.2c2.3-1.9,4.9-3.3,7.4-5C12.4,29.1,13.2,28.6,14,28.1z"/>
		<path d="M12,77.8c0.4-0.2,0.9-0.2,1.3-0.1c0.7,0.3,1.2,0.3,1.3-0.7c0.1-0.5,0.3,0.1,0.5,0.1c0.5,0.2,1,0.3,1.5,0.5
			c-0.4,1.2-1.5,0.6-2.3,1c-0.2,0.1-0.5,0.1-0.5,0.5c0,0.3,0.3,0.3,0.5,0.3c0.9-0.1,1.7,0.2,2.5,0.3c3.3,0.2,6.6,0.6,9.9,0.3
			c0.3,0,0.7,0,1,0c0.5,0.1,0.9,0.3,0.9,0.9c-5.1,0-10.2,0-15.3,0c-0.7,0-1.3-0.1-1.2,0.9c-0.1,0-0.2,0-0.2,0
			c-0.8-0.1-1.1-0.4-0.4-1c0.3-0.3,0.4-0.6,0.7-0.8c0.7-0.6,0.7-1-0.3-1.3c-0.7-0.2,0.1-0.4,0-0.5C12,78,12,77.9,12,77.8z"/>
		<path d="M15,77.1c-0.2,0-0.4-0.6-0.5-0.1c-0.1,1-0.6,1-1.3,0.7c1-0.1,0.9-0.9,0.9-1.6c0-4.2-0.1-8.4-0.1-12.5
			c0-8.3,0-16.6,0.1-24.9c0-1.3-0.4-1.7-1.6-1.7C11,37,9.5,36.9,7.9,36.8c1.8-0.4,3.6-0.1,5.4-0.2c0.4,0,0.9,0,1.3,0.3
			c0,1.1,0,2.2,0,3.3c0,8.7,0,17.4,0,26.1c0,2.2,0,4.4,0,6.6c0,0.5-0.1,1,0,1.5c0.1,0.5-0.3,1.1,0.5,1.3c0,0.1,0,0.2,0,0.3
			c0,0.2,0,0.3,0,0.5C15,76.8,15,77,15,77.1z"/>
		<path d="M7.1,92c-1.3,0.1,0,0.6,0,0.9c-1.3-0.3-2.1-2-1.7-3.6c0.3-1.3,0.1-2.6,0.2-3.9c0-0.6-0.2-0.9-0.8-0.8c0,0,0,0,0,0
			c-0.1-0.5,0.5-0.8,0.5-1.2c0-0.1,0-0.1,0-0.2c0.4,0,0.9,0,1.3-0.1c0,0.1,0,0.1,0,0.2c-0.1,0.2-0.2,0.5-0.3,0.7
			c-0.2,0-0.4,0.1-0.5,0.3c0,0.3,0.2,0.4,0.5,0.5c0.5,0,1.1-0.4,1.3,0.5c-0.3,0.1-0.2,0.4-0.2,0.6C7.1,86.1,7,86.4,7,86.7
			C7,88.5,6.8,90.2,7.1,92z"/>
		<path d="M12,78.1c0.1,0.2-0.7,0.4,0,0.5c0.9,0.2,1,0.7,0.3,1.3c-0.3,0.2-0.4,0.6-0.7,0.8c-0.7,0.6-0.4,0.9,0.4,1
			c0.1,0.1,0.1,0.2,0.2,0.3c0,0.1,0,0.2,0,0.2c-0.9,0-1.7,0.4-2.6,0.2c-0.1-0.9-0.1-1.9,0.1-2.8c0.4-0.3,0.4-0.7,0.1-1
			c0-0.2,0.1-0.3,0.1-0.5C10.6,78.2,11.3,78.2,12,78.1z"/>
		<path d="M85.7,41.8c-0.6-0.5-0.1-1.2-0.6-2c0,3.4,0,6.7,0,9.9c-0.1-4.1-0.7-8.1,0.3-12.2c0.1-0.2,0.2-0.3,0.4-0.4
			C85.8,38.7,85.7,40.2,85.7,41.8z"/>
		<path d="M95.7,93.3c-0.4,0-0.6-0.2-0.6-0.6c0-1.8,0-3.5,0-5.3c0-0.4,0.2-0.6,0.6-0.8C95.8,88.8,95.9,91.1,95.7,93.3z"/>
		<path d="M5.1,94.8c2.1-0.4,4.3-0.1,6.5-0.2c0.8,0,1.7-0.2,2.5,0.2C11,94.9,8,94.9,5.1,94.8z"/>
		<path d="M9.5,82.5c0.9,0.2,1.7-0.2,2.6-0.2c0,0.3,0,0.6,0.3,0.8c0,0.1,0,0.2,0,0.2c-0.6-0.1-1.2,0.1-1.8,0.2
			c-0.3-0.1-0.5-0.4-0.8,0c-0.5-0.1-1-0.2-1.6-0.2c-0.4,0-0.8,0-1.3,0c-0.2,0-0.3,0-0.5,0c0-0.1,0-0.1,0-0.2C7.2,83,7.8,83,8.5,83
			C8.9,83,9.3,83,9.5,82.5z"/>
		<path d="M47.9,6.9c-0.5,0-0.3-0.4-0.3-0.6c1-0.5,1.8-1.7,3.1-0.9c-0.2,0.5,0.4,1.3-0.5,1.5c0,0,0,0,0,0c-0.1-0.6-0.6-0.5-1-0.7
			C49,7,48.2,6.5,47.9,6.9z"/>
		<path d="M88,36.6c1.9,0,3.8,0,5.6,0c0.6,0,1.2-0.1,1.7-0.3c-0.1,0.5-0.6,0.6-1,0.6c-2.1,0-4.3,0.2-6.4,0
			C87.9,36.8,87.9,36.7,88,36.6z"/>
		<path d="M5.3,83.1c0,0.1,0,0.1,0,0.2c-0.9,0.1-0.9,0.6-0.5,1.2c0,0,0,0,0,0c-0.5,0.7,0,1.6-0.6,2.3C4,86,4.1,85,4.1,84.1
			C4.1,83.3,4.5,83,5.3,83.1z"/>
		<path d="M88,94.8c1.1-0.3,2.2-0.3,3.3,0C90.2,94.9,89.1,94.9,88,94.8z"/>
		<path d="M4.3,34.5c-0.2,0.9,0.5,1.5,0.8,2.2C4.2,36.2,3.7,35.6,4.3,34.5z"/>
		<path d="M85.7,66.6c-0.5-0.8-0.5-1.6,0-2.3C85.9,65.1,85.9,65.9,85.7,66.6z"/>
		<path d="M12,78.1c-0.7,0-1.4,0-2.1,0.1c0.6-0.7,1.4-0.3,2.1-0.3C12,77.9,12,78,12,78.1z"/>
		<path d="M85.7,52c-0.5-0.7-0.5-1.4,0-2.1C85.9,50.6,85.9,51.3,85.7,52z"/>
		<path d="M85.7,72.5c-0.4-0.7-0.5-1.4,0-2.1C85.8,71.2,85.9,71.8,85.7,72.5z"/>
		<path d="M94.6,94.7c-0.1-0.5,0.2-0.7,0.7-0.6c0,0.1,0,0.3,0,0.4C95.2,94.8,94.9,94.8,94.6,94.7z"/>
		<path d="M9.7,78.7c0.3,0.4,0.3,0.7-0.1,1C9.5,79.4,9.6,79,9.7,78.7z"/>
		<path d="M95.4,94.5c0-0.1,0-0.3,0-0.4c0.1-0.1,0.2-0.2,0.4-0.3C96,94.2,95.7,94.3,95.4,94.5z"/>
		<path d="M95.7,35.7c0-0.4,0-0.7,0-1.1C96.1,35,96,35.4,95.7,35.7z"/>
		<path d="M4.3,94.3c0.2,0,0.3,0.1,0.3,0.3C4.2,94.7,4.1,94.6,4.3,94.3z"/>
		<path d="M61.3,80c0,0.9,0.1,1.9,0.1,2.8c-0.9-0.2-2.1,0.5-2.4-1c0.8-0.3,0.5-1,0.4-1.5c-0.2-0.5-0.7-0.2-1.1-0.1
			c-0.9,0.1-1.8,0-2.7,0.1c-0.4,0-0.9-0.5-1.3,0c-0.3,0-0.7,0-1,0c-2.6-0.5-5.3-0.2-7.9-0.3c-0.2,0-0.4,0.2-0.5,0.2
			c-0.7,0-1.5,0-2.1,0.5c-0.4,0-0.8,0-1.3,0c-0.4,0.2-0.7,0.4-0.2,0.8c0.2,0.3,0.2,0.7,0.1,1c-0.2,0.2-0.4,0.1-0.6,0
			c-0.3-0.4-0.7-0.2-1-0.2c-0.4,0-0.8,0-1.2,0c-0.1-1,0-2,0-3.1c0.1-1,0.6-1.4,1.6-1.4c0.7,0,1.5-0.1,2.2,0c0.9,0,1.3-0.3,1.2-1.3
			c-0.1-4.1-0.1-8.2-0.1-12.3c0-4.8,0-9.5,0-14.3c0-1.3-0.3-2.2-1.6-3c-3.1-2-5.4-4.8-6.4-8.5c0.3,0,0.6,0,0.9,0
			c1-0.1,1.7,0.7,1.5,1.8c-0.1,0.9,0.8,0.1,1,0.5c0.6,1.2,1.5,2.2,2.6,3.1c-0.1,0.7,0.4,1.1,0.9,1.4c2.2,1.4,3.3,3.3,3.2,5.9
			c0,3.2,0,6.4,0,9.6c0,0.5-0.3,1.1,0.5,1.3c0.1,0.8-0.3,1.6,0.3,2.3c0.1,3.8,0,7.7-0.2,11.5c-0.5,0.4-0.5,0.7,0,1.1
			c0.1,0.7,0.6,0.8,1.2,0.8c1.9,0,3.8,0,5.6,0c0.2,0.6,0.5,0.2,0.8,0.1c0.5,0.3,0.8,0.2,0.8-0.4c0-0.7,0-1.4,0-2
			c0-0.7-0.3-0.9-0.9-0.8c-0.2-3.8-0.2-7.7-0.1-11.5c0.5-1.3,0.2-2.7,0.2-4.1c0-0.9,0.3-1.9-0.2-2.8c0-2.3-0.1-4.5-0.1-6.8
			c1.3-0.6,1.9-0.1,2.2,1.5c0.5,2.9-0.4,5.7,0,8.5c0.5,3.2-0.1,6.5,0.4,9.7c0.1,0.6,0,1.3-0.3,1.9c-0.2,0.3-0.3,0.7-0.1,1
			c0.7,1.2,0.3,2.4,0.4,3.6c0,0.4,0.1,0.9-0.5,1.2c-0.5,0.3-0.4,0.9,0,1.3c0.6,0.6,0.6-0.4,1-0.4c0.2,0.1,0.4,0.1,0.5,0.2
			c0.8,0.5,1.6,0.4,2.5,0.6c0.3,0,0.6-0.1,0.6-0.5c1.1-0.2,1.1,0.5,1,1.3C60.9,79.5,60.9,79.7,61.3,80z M55.1,78.2
			c0,0-0.1,0-0.1-0.1C55,78.1,55.1,78.1,55.1,78.2c0.1,0.1-0.1,0.3,0.2,0.3C55.2,78.3,55.2,78.3,55.1,78.2z"/>
		<path d="M29.4,86c-0.2,0-0.5,0-0.7,0c-0.9-0.7-1.7-0.5-2.6-0.1c-5.4,0.1-10.8,0.2-16.1,0c-0.7-0.6-1.4-0.6-2.1,0
			c-0.2,0-0.3,0-0.5,0c0-0.2-0.1-0.5,0.2-0.6c0.8-0.2,1.7,0.5,2.3-0.5c0.2,0.1,0.3,0.2,0.5,0.3c0.3,0.4,0.8,0.2,1.2,0.2
			c3.3,0,6.5,0,9.8,0c-1.9-0.3-3.8-0.4-5.7-0.2c-1.6,0.1-2.7-0.3-3.2-1.8c0-0.1,0-0.2,0-0.2c5.3,0,10.6,0,15.9,0.1
			c1.4,0.8,2.8,0.5,4.1-0.1c1.8,0,3.6,0,5.4,0.1c0,0.2,0,0.4,0.3,0.4c0.2,0.3,0.3,0.3,0.5,0c1,0,2.1,0.3,2.9-0.5
			c0.6,0,1.2,0,1.8,0.1c4.8,0,9.7,0.1,14.5,0.1c0.7,0.7,2.4,0.6,3.6-0.2c0.4,0,0.8,0.1,1.2,0.1c0,0.1,0,0.2,0,0.3
			c-0.4,0.6,0.2,0.5,0.5,0.5c1.1,0,2.3,0,3.4,0c0.4,0,0.7,0,0.8-0.5c0.4-0.1,0.8-0.1,1.3,0c0.3,0.3,0.5,0.3,0.8,0
			c0.4,0,0.8-0.1,0.9-0.6c0.5,0.4,1.1,0.3,1.7,0.3c2.5,0,5.1,0.1,7.6,0.1c0.6,1.3,1.5,0.5,2.3,0.4c0.3,0,0.5,0,0.8,0
			c0,0.6,0.3,0.8,0.9,0.8c0.6,0,1.3,0,2,0c-0.4,0.7-1,0.8-1.6,0.8c0.5,0.6,1.7-0.4,1.8,0.8c-4.1,0-8.2,0-12.3,0
			c-0.1-0.2-0.3-0.3-0.5-0.3c-2.6,0-5.1,0-7.7,0c-0.3,0-0.5,0.1-0.6,0.4c-0.5,0-1,0-1.5,0c-0.8-0.5-3.3-0.5-4.1,0c-0.5,0-1,0-1.5,0
			c-0.1-0.4-0.5-0.4-0.9-0.4c-1.4,0-2.8,0-4.2,0c-0.3,0-0.7-0.1-0.9,0.4c-1.2,0.1-2.4,0.1-3.6,0c-0.3-0.6-0.8-0.3-1.3-0.3
			c-1.7-0.1-3.3,0.1-5-0.3c-1.3-0.3-2.7-0.7-4-0.2c-1.7,0.6-3.5,0.5-5.3,0.5c-0.8,0-1.6,0-2.4,0C29.9,85.6,29.6,85.5,29.4,86z"/>
		<path d="M24.4,48.4c-0.1-1-0.1-2,0-3c0.5,0,0.6-0.3,0.6-0.8c0-1.2,0.1-2.4,0.2-3.6c0.1-0.8,0.2-1.8-0.8-2.3
			c-0.1-0.5-0.1-1-0.2-1.6c0.2-0.1,0.5-0.4,0.7,0c0.1,0.4-0.2,0.9,0.3,1.2c0.1,0.1,0.4-0.1,0.5-0.2c0.6-0.4-0.2-0.7-0.1-1
			c0.4-0.4,0.8-0.7,0.8,0.2c0,1.1-0.2,2.2-0.1,3.3c0.1,1.6-0.1,3.2,0.8,4.7c0.1,2.9,0.1,5.8,0,8.7c-0.9,0.1-1-0.5-0.9-1.1
			c0.1-0.5,0.3-0.9-0.5-1c-0.3,0-0.3-0.4-0.3-0.6C25.7,50.2,24.7,49.4,24.4,48.4z"/>
		<path d="M17.5,36.9c-0.1,0.2-0.3,0.5-0.4,0.7c-0.3,0-0.5,0.2-0.5,0.5c-0.4,0.5-0.4,1,0,1.5c0,3.5,0,7,0,10.5c-0.1,0-0.2,0-0.2,0
			c-0.9-0.1-0.8,0.6-0.8,1.1c0,3,0,5.9,0,8.9c-0.2,0-0.3,0-0.5,0c0-6.2,0-12.4,0-18.6c0-0.5,0.3-1.2-0.5-1.4c0-1.1,0-2.2,0-3.3
			C15.5,36.8,16.5,36.7,17.5,36.9z M16.3,47c0-0.3,0.1-0.8-0.4-0.8c-0.5,0-0.4,0.5-0.4,0.8c0,0.3,0,0.8,0.4,0.8
			C16.5,47.8,16.3,47.3,16.3,47z"/>
		<path d="M57.1,24.7c-2.9-2-6.1-2.5-9.5-1.9c-1.7,0.3-3.1,1-4.6,1.8c-0.2-0.6-0.8-1.3,0.6-1.2c0.5,0.1,0.8-0.7,1.1-1.1
			c0.9-1.5,2.3-1.9,3.9-1.9c0.8,0,1.6-0.1,2.4,0c1.4,0.1,2.8,0.2,3.7,1.5c0.6,0.8,1.5,1.1,2.2,1.8C57.5,24.2,57.1,24.4,57.1,24.7z"
			/>
		<path d="M82.6,77.7c0.2-3.4,0.1-6.9,0.1-10.3c0-6.8,0-13.5,0-20.3c0-0.5-0.1-0.9,0.1-1.4c0.4,0.4,0.2,1,0.2,1.5
			c0,9.2,0,18.3,0,27.5c0,0.7,0,1.5,0,2.2C83.1,77.1,83.2,77.6,82.6,77.7z"/>
		<path d="M70.6,80.7c0,0.6-0.1,1.3-0.1,1.9c-0.3,0-0.6-0.1-0.9-0.1c-0.2-0.3-0.5-0.2-0.8-0.2c-0.3,0.2-0.7,0.3-1,0.5
			c0.1-0.9-0.1-1.9,0.2-2.8c0.3-0.1,0.4-0.3,0.1-0.5c0-0.3,0.1-0.5,0.1-0.8c0.4-0.1,0.3-0.4,0.4-0.7c0.3,0,0.7,0,1-0.1
			c0.1,0.1,0.2,0.2,0.3,0.2c0.5,0.5,1.2,0.3,1.7,0.7c0.3,0.2,0.8,0.4,0.7,0.8c-0.1,0.5-0.6,0.4-0.9,0.5c-0.2,0.1-0.5,0-0.7,0.1
			C70.2,80.4,70.4,80.6,70.6,80.7z"/>
		<path d="M14,33.8c4.8,0,9.6,0,14.4,0c0,0.2,0,0.3,0,0.5c-0.3,0-0.5,0-0.8,0c-1.2,0-2.4,0-3.6,0c-0.5,0-1,0-1.5,0
			c-1.1,0-2.2,0-3.3,0c-1.9,0-1.9,0-2.2,1.9c-1.6-0.3-2.8-2.1-4.7-1.6c1.3,0,2.7,0,4,0c-1.6-0.5-3.3,0-4.9-0.5
			C12.3,33.9,13.2,34.3,14,33.8z"/>
		<path d="M83.1,74.6c0-9.2,0-18.3,0-27.5c0-0.5,0.2-1-0.2-1.5c0-2.5,0-5,0-7.4c0.3-0.2,0.2-0.5,0.2-0.8c0.4,0.3,0.2,0.8,0.2,1.2
			c0,11.5,0,23.1,0,34.6C83.3,73.7,83.5,74.2,83.1,74.6z"/>
		<path d="M46.5,49.4c0,4.6,0,9.1,0,13.7c0,0.4,0.1,0.9-0.1,1.2c-0.5-0.7-0.1-1.5-0.3-2.3c0-3.7,0-7.5,0-11.2
			C46.1,50.3,45.9,49.7,46.5,49.4z"/>
		<path d="M39.5,40.2c1.1,1.5,2.4,2.9,3.8,4.2c-0.7,0.2-1.2-0.4-1.8-0.5c-1-0.9-1.9-1.9-2.6-3.1C39.3,40.7,39.4,40.5,39.5,40.2z"/>
		<path d="M77.7,33.8c2.7-0.2,5.5-0.3,8.2-0.1c-0.1,0.1-0.3,0.3-0.4,0.3c-2.5,0-5,0-7.5,0C77.9,34,77.8,33.9,77.7,33.8z"/>
		<path d="M31.2,33.8c1.2-0.1,2.4-0.1,3.6-0.2c0,0.5,0,1-0.7,0.9c-0.8,0-1.5,0-2.3,0C31.3,34.6,31.2,34.3,31.2,33.8z"/>
		<path d="M49.4,46.3c1.3-0.1,2.6-0.3,3.8-0.4c0,0.8-0.4,1.1-1.2,1.1c-0.7,0-1.3,0-2,0.1C49.5,47.2,48.8,47.1,49.4,46.3z"/>
		<path d="M30.5,37c-1,0.1-2.1,0.2-3.1,0.2C28.1,36.2,29.8,36,30.5,37z"/>
		<path d="M52.3,49.2c-0.9,0.3-1.9,0.3-2.8,0.1C50,48.4,50.9,48.4,52.3,49.2z"/>
		<path d="M86.9,33.8c0.6-0.4,1.4,0.2,1.9-0.5c0.3,0,0.4,0.3,0.4,0.5c-0.4,0.3-0.9,0.2-1.4,0.5C87.2,34.9,86.9,34.5,86.9,33.8z"/>
		<path d="M54.1,45.6c0.9-0.5,1.8-1,2.7-1.4c0,0.1,0.1,0.3,0.1,0.4v0c-0.5,0.3-1,0.7-1.6,1C54.9,45.8,54.5,46.1,54.1,45.6z"/>
		<path d="M43.3,21.2c0.4-0.4,0.9-0.6,1.5-0.7c-0.1,0.4,0.3,1-0.3,1.2c-0.3,0.1-0.6,0.6-1,0.4C43.1,22,43.3,21.5,43.3,21.2z"/>
		<path d="M34.3,35.1c-1.8,0-3.7,0-5.5,0c0,0,0-0.1,0-0.1c1.8,0,3.7,0,5.5,0C34.2,35,34.3,35,34.3,35.1z"/>
		<path d="M82.6,37c-0.9,0-1.8,0.2-2.6-0.1C80.9,36.5,81.8,36.4,82.6,37z"/>
		<path d="M14,33.8c-0.8,0.5-1.7,0.1-2.6,0.3c0-0.1,0-0.2,0-0.2C12.3,33.7,13.2,33.7,14,33.8z"/>
		<path d="M25.8,37.2c-0.1,0.4,0.7,0.6,0.1,1c-0.2,0.1-0.4,0.2-0.5,0.2c-0.5-0.3-0.2-0.8-0.3-1.2C25.3,37.2,25.6,37.2,25.8,37.2z"/>
		<path d="M34.8,37c-0.8,0.1-1.6,0.2-2.3,0C33.3,36.5,34.1,36.5,34.8,37z"/>
		<path d="M87.7,83c0-0.1,0.1-0.2,0.1-0.2c0.7,0,1.4,0,2.1,0c0,0.1,0,0.3,0,0.4C89.1,83.4,88.4,83.4,87.7,83z"/>
		<path d="M88.5,86c-0.4,0-0.8,0-1.3,0c0-0.4,0.1-0.6,0.6-0.6C88.2,85.3,88.5,85.5,88.5,86z"/>
		<path d="M69.7,78.2c-0.1-0.1-0.2-0.2-0.3-0.2c0.6-0.2,1.2-0.2,1.8-0.1C70.8,78.4,70.2,78,69.7,78.2z"/>
		<path d="M47.9,49.3c-0.4,0-0.9,0-1.3,0.1C47,48.4,47.5,48.7,47.9,49.3z"/>
		<path d="M79.4,34.5c-0.7,0-1.5,0-2.2,0c0,0,0-0.1,0-0.1c0.7,0,1.5,0,2.2,0C79.4,34.4,79.4,34.5,79.4,34.5z"/>
		<path d="M65.7,34.6c0-0.2,0.2-0.3,0.4-0.2c0.2,0,0.4,0.2,0.4,0.4c0,0.3-0.2,0.3-0.4,0.3C65.9,35,65.7,34.9,65.7,34.6z"/>
		<path d="M67.4,36.9c-0.4,0.1-0.9,0.2-1.3,0C66.6,36.5,67,36.5,67.4,36.9z"/>
		<path d="M83.8,83.1c0.4,0,0.9,0,1.3,0C84.7,83.8,84.3,83.8,83.8,83.1z"/>
		<path d="M81.8,36.3c-0.6,0-1.1,0-1.7,0c0,0,0-0.1,0-0.1c0.6,0,1.1,0,1.7,0C81.7,36.3,81.8,36.3,81.8,36.3z"/>
		<path d="M67.7,36.2c0.6,0,1.2,0,1.8,0c0,0,0,0.1,0,0.1c-0.6,0-1.2,0-1.8,0C67.7,36.3,67.7,36.2,67.7,36.2z"/>
		<path d="M83.1,37.4c0,0.3,0.1,0.6-0.2,0.8c-0.2-0.3-0.1-0.7-0.1-1.1C82.8,37.2,83,37.3,83.1,37.4z"/>
		<path d="M19.9,36.3c0.8-0.3,1.3-0.2,2.1-0.1C21.2,36.5,20.7,36.4,19.9,36.3z"/>
		<path d="M86.2,34.9c0.5,0,1,0,1.6,0C87.2,35.3,86.7,35,86.2,34.9z"/>
		<path d="M27.7,35.6c0.2,0,0.4,0,0.3,0.3c0,0.2-0.2,0.2-0.4,0.2c-0.2,0-0.4,0-0.3-0.3C27.3,35.6,27.5,35.6,27.7,35.6z"/>
		<path d="M72.3,77.7c0.1-0.2,0.2-0.4,0.3-0.6c0.2,0,0.4,0.2,0.3,0.4C72.8,77.8,72.7,78,72.3,77.7z"/>
		<path d="M85.3,34.4c-0.4,0.2-0.8,0.2-1.2,0C84.5,34.4,84.9,34.4,85.3,34.4z"/>
		<path d="M22.5,34.3c0.5,0,1,0,1.5,0C23.5,34.7,23,34.7,22.5,34.3z"/>
		<path d="M82,83.1c0.3,0,0.5,0,0.8,0c0,0.2,0,0.3,0,0.5c-0.3,0-0.5,0-0.8,0C82.1,83.4,82.1,83.2,82,83.1z"/>
		<path d="M72.5,34.6c-0.2,0-0.6,0-0.7-0.1c0-0.3,0.2-0.1,0.4-0.2c0.1,0,0.2,0,0.3,0.1C72.5,34.5,72.5,34.5,72.5,34.6z"/>
		<path d="M11.2,33.3c0,0.2,0,0.4,0,0.5c-0.2,0-0.4-0.1-0.5-0.3c0-0.1,0-0.2,0.1-0.3C10.8,33.3,11,33.3,11.2,33.3z"/>
		<path d="M34.9,33.6c0.1-0.2,0.1-0.4,0.2-0.5C35.5,33.4,35.2,33.5,34.9,33.6z"/>
		<path d="M75.5,76.6c0,0.2,0,0.4,0.1,0.5C75.1,77,75,76.8,75.5,76.6z"/>
		<path d="M46.4,45.8c0.2,0,0.3,0.1,0.5,0.1c-0.1,0.1-0.2,0.3-0.3,0.3C46.4,46.3,46.4,46,46.4,45.8z"/>
		<path d="M73.2,78.7c0-0.1,0-0.2,0.1-0.2c0.1,0,0.1,0.1,0.2,0.1c0,0.1,0,0.2-0.1,0.2C73.3,78.8,73.2,78.8,73.2,78.7z"/>
		<path d="M27.6,34.3c0.3,0,0.5,0,0.8,0C28.1,34.7,27.9,34.7,27.6,34.3z"/>
		<path d="M27.3,37.4c0,0.1,0,0.2,0,0.3c-0.1,0-0.2-0.1-0.3-0.1C27.1,37.5,27.2,37.5,27.3,37.4z"/>
		<path d="M56.9,44.6c0,0,0.1,0,0.1,0.1C57,44.6,56.9,44.6,56.9,44.6C56.9,44.6,56.9,44.6,56.9,44.6z"/>
		<path d="M59.8,94.1c10.6,0,21.3,0,31.9,0c0,0,0,0.1,0,0.1c-10.7,0-21.3,0-32,0C59.8,94.2,59.8,94.1,59.8,94.1z"/>
		<path d="M22.2,92c0.6-0.1,1.2-0.1,1.8,0C23.4,92.7,22.8,92.7,22.2,92z"/>
		<path d="M50.9,8.8c-0.8-0.8-1.3-0.5-2.1,0.1c-1.6,1.2-3.2,2.3-5,3.3c-0.2-0.4,0.6-0.8,0-1.2c1.1-1.3,2.8-1.9,4.1-2.8
			c1,0,1.3-1.2,2.3-1.3c0,0,0,0,0,0c0,0.6,0.5,0.9,0.9,1.3C51.7,8.6,51.2,8.7,50.9,8.8z"/>
		<path d="M43.8,11c0.6,0.4-0.2,0.8,0,1.2c-3,2-5.9,4-8.9,5.9c-6.3,4.1-12.6,8.2-18.9,12.3c-1.6,1-3.2,2-4.8,3c-0.2,0-0.3,0-0.5,0
			c-0.8-1.6,0.8-1.8,1.5-2.2c1-0.5,1.8-1.2,2.6-1.9c0.4,0,0.7,0,0.8-0.5l0,0c1,0,1.4-0.9,2.1-1.3c0,0,0,0,0,0c0.2,0,0.4,0,0.5-0.3
			c0,0,0,0,0,0c0.3,0,0.5-0.2,0.5-0.5c0,0,0,0,0,0c0.8,0,1.4-0.4,1.8-1c0.1,0,0.1,0,0.2,0c0.3,0,0.5-0.2,0.5-0.5c0,0,0,0,0,0
			c0.3,0,0.5-0.2,0.5-0.5c0,0,0,0,0,0c0.6,0,1.1,0,1.3-0.8c0,0,0,0,0,0c0.4,0,0.7,0,0.8-0.5c0.1,0,0.1,0,0.2,0
			c0.1-0.1,0.2-0.2,0.3-0.3c0,0,0,0,0,0c0.9-0.1,1.6-0.4,2.1-1.3c0,0,0,0,0,0c1-0.5,2.2-0.6,2.6-1.8c0.1-0.1,0.1-0.1,0.2-0.2
			c0.5,0,1,0.1,1.1-0.5c0,0,0.1,0,0.1,0c0.5-0.1,1-0.1,1.1-0.8c0,0,0,0,0,0c0.4,0,0.8,0,0.8-0.5c0.1-0.1,0.1-0.1,0.2-0.2
			c0.1-0.1,0.2-0.2,0.3-0.3c0.1,0,0.1,0,0.2,0c0.4,0,0.8,0,0.8-0.6c0-0.3,0.2-0.4,0.5-0.5c0.7,0.4,1-0.1,1.4-0.5
			c0.3,0,0.6-0.2,0.7-0.5c1.6-0.8,3.3-1.6,4.4-3.1l0,0c0.8,0,1.5-0.1,1.5-1.1c0.1-0.1,0.1-0.1,0.2-0.2C42.9,11.4,43.3,11.1,43.8,11z
			"/>
		<path d="M43.8,11c-0.4,0.1-0.9,0.4-1.3,0c1.7-1.3,3.4-2.6,5.5-3.3c0,0.2,0,0.3,0,0.5C46.5,9.1,44.9,9.7,43.8,11z"/>
		<path d="M40.7,12.3c-1.1,1.5-2.8,2.3-4.4,3.1c0-0.2,0-0.4,0.1-0.5C37.9,14.1,39.1,12.9,40.7,12.3z"/>
		<path d="M47.9,8.2c0-0.2,0-0.3,0-0.5c0.1-0.3,0.4-0.5,0-0.8C48.2,6.5,49,7,49.2,6.2c0.4,0.1,1,0,1,0.7C49.2,7,48.9,8.2,47.9,8.2z"
			/>
		<path d="M28.9,19.9c-0.4,1.3-1.6,1.4-2.6,1.8C27,20.8,27.9,20.4,28.9,19.9z"/>
		<path d="M26.4,21.8c-0.4,0.8-1.1,1.2-2.1,1.3C24.7,22.2,25.4,21.7,26.4,21.8z"/>
		<path d="M17.6,27.4c-0.7,0.4-1.1,1.3-2.1,1.3c-0.1-0.2-0.2-0.3-0.2-0.5C16.2,28.2,16.6,27,17.6,27.4z"/>
		<path d="M20.5,25.6c-0.4,0.7-1,1.1-1.8,1C19.1,25.9,19.7,25.6,20.5,25.6z"/>
		<path d="M42.3,11.2c-0.1,1-0.7,1.1-1.5,1.1C41.1,11.7,41.7,11.5,42.3,11.2z"/>
		<path d="M35.6,15.9c-0.4,0.4-0.7,0.9-1.4,0.5C34.6,16,35,15.5,35.6,15.9z"/>
		<path d="M23,23.8c-0.1,0.7-0.7,0.7-1.3,0.8C22,24.1,22.5,23.9,23,23.8z"/>
		<path d="M31.5,18.4c-0.1,0.6-0.6,0.7-1.1,0.8C30.6,18.7,31,18.5,31.5,18.4z"/>
		<path d="M30.3,19.2c-0.2,0.6-0.7,0.5-1.1,0.5C29.4,19.3,29.8,19.2,30.3,19.2z"/>
		<path d="M15.3,28.2c0.1,0.2,0.2,0.3,0.2,0.5c0,0,0,0,0,0c-0.3,0.1-0.5,0.2-0.8,0.3c0,0,0,0,0,0C14.8,28.6,14.8,28.2,15.3,28.2z"/>
		<path d="M33.8,16.8c0,0.6-0.4,0.6-0.8,0.6C33,16.9,33.4,16.9,33.8,16.8z"/>
		<path d="M23.8,23.3c-0.1,0.5-0.4,0.5-0.8,0.5C23.2,23.5,23.4,23.3,23.8,23.3z"/>
		<path d="M32.3,17.9c0,0.5-0.4,0.6-0.8,0.5C31.6,18.1,31.9,18,32.3,17.9z"/>
		<path d="M18.6,26.6c0,0.3-0.2,0.5-0.5,0.5C18.1,26.8,18.3,26.6,18.6,26.6z"/>
		<path d="M21.2,25.1c0,0.4-0.2,0.5-0.5,0.5C20.7,25.3,20.9,25.1,21.2,25.1z"/>
		<path d="M21.7,24.6c0,0.4-0.2,0.5-0.5,0.5C21.3,24.9,21.5,24.7,21.7,24.6z"/>
		<path d="M18.1,27.2c-0.1,0.2-0.3,0.3-0.5,0.3C17.7,27.2,17.9,27.2,18.1,27.2z"/>
		<path d="M24.3,23.1c-0.1,0.1-0.2,0.2-0.3,0.3C24.1,23.2,24.2,23.1,24.3,23.1z"/>
		<path d="M32.8,17.4c-0.1,0.1-0.2,0.2-0.3,0.3C32.6,17.6,32.7,17.5,32.8,17.4z"/>
		<path d="M14.8,29c0.3-0.1,0.5-0.2,0.8-0.3c0,0.5-0.4,0.5-0.8,0.5C14.8,29.1,14.8,29,14.8,29z"/>
		<path d="M17.2,77.6c1.7,0.1,3.4,0.1,5.1,0.2c-0.1,0.6,0.2,0.9,0.9,0.9c0.9-0.1,1.8-0.2,2.7-0.3c0.5,0,0.8-0.4,1-0.8
			c0.2,0,0.3,0,0.5,0c0,0,0,0,0,0c0.6,0.9,2.6,1,3.9,0.3c0.6-0.1,0.9,0.1,0.9,0.7c0,0.7,0,1.3,0,2c-0.4,0-0.7,0.1-0.7,0.5
			c0,0.4,0.4,0.2,0.7,0.3c0,0.2,0,0.5,0,0.7c-0.3,0-0.6,0-1-0.2c-0.4-0.3-0.9-0.8-1.1,0.2c0,0.1-0.3,0-0.5,0.1
			c-0.2-0.5,0.1-1.4-0.9-1.4c0-0.6-0.4-0.8-0.9-0.9c-0.3-0.1-0.7-0.1-1,0c-3.3,0.3-6.6-0.1-9.9-0.3c-0.8,0-1.7-0.3-2.5-0.3
			c-0.2,0-0.4,0-0.5-0.3c-0.1-0.3,0.2-0.3,0.5-0.5c0.7-0.4,1.9,0.1,2.3-1C16.8,77.6,17,77.6,17.2,77.6z"/>
		<path d="M17.2,77.6c-0.2,0-0.4,0-0.6,0c-0.5-0.2-1-0.3-1.5-0.5c0-0.2,0-0.3,0-0.5c0.1-0.1,0.4-0.1,0.4-0.2
			c0.1-0.3-0.2-0.3-0.4-0.3c0-0.1,0-0.2,0-0.3c0.1-0.6-0.2-1.3,0.3-1.8c0.4,0,0.5,0.2,0.4,0.6c-0.4,1.2,0.3,1.5,1.3,1.5
			C17,76.6,17.1,77.1,17.2,77.6z"/>
		<path d="M12.2,81.7c0,0.1,0,0.2,0,0.3c-0.1-0.1-0.1-0.2-0.2-0.3C12,81.7,12.1,81.7,12.2,81.7z"/>
		<path d="M15.3,74.1c-0.5,0.5-0.1,1.2-0.3,1.8c-0.8-0.2-0.4-0.9-0.5-1.3c-0.1-0.5,0-1,0-1.5c0.5-1.2,0.2-2.4,0.2-3.6
			c0-1,0.3-2.1-0.2-3.1c0-8.7,0-17.4,0-26.1c0.8,0.2,0.5,0.9,0.5,1.4c0,6.2,0,12.4,0,18.6c0,2.1,0,4.1,0,6.2
			C15,68.9,15.1,71.5,15.3,74.1z"/>
		<path d="M14.5,66.4c0.5,1,0.2,2,0.2,3.1c0,1.2,0.3,2.4-0.2,3.6C14.6,70.8,14.6,68.6,14.5,66.4z"/>
		<path d="M15,76.1c0.2,0,0.4,0,0.4,0.3c0,0.1-0.2,0.1-0.4,0.2C15,76.5,15,76.3,15,76.1z"/>
		<path d="M9.9,84.8c-0.6,1-1.6,0.3-2.3,0.5c-0.2-0.8-0.8-0.5-1.3-0.5c0-0.3,0-0.5,0-0.8c0.1-0.2,0.2-0.5,0.3-0.7c0.2,0,0.3,0,0.5,0
			c0.1,0.6,0.3,0.9,0.9,0.6c0.2-0.1,1.1,0.1,0.3-0.6c0.5,0.1,1,0.2,1.6,0.2C9.9,84,9.9,84.4,9.9,84.8z M8,84.7c0-0.1,0-0.1,0.1-0.2
			c0,0-0.1,0-0.1,0C7.9,84.6,8,84.6,8,84.7z"/>
		<path d="M4.8,84.6c-0.4-0.7-0.4-1.1,0.5-1.2C5.2,83.8,4.6,84,4.8,84.6z"/>
		<path d="M6.3,84c0,0.3,0,0.5,0,0.8c-0.3-0.1-0.5-0.1-0.5-0.5C5.9,84.1,6.1,84.1,6.3,84z"/>
		<path d="M12.5,83.3c0.5,1.5,1.6,2,3.2,1.8c1.9-0.2,3.8,0,5.7,0.2c-3.3,0-6.5,0-9.8,0c-0.4,0-0.9,0.1-1.2-0.2
			c0.1-0.5,0.4-1,0.3-1.6C11.3,83.4,11.9,83.2,12.5,83.3z"/>
		<path d="M10.7,83.5c0.1,0.6-0.2,1-0.3,1.6c-0.2-0.1-0.3-0.2-0.5-0.3c0-0.4,0-0.9,0-1.3C10.2,83.1,10.4,83.4,10.7,83.5z"/>
		<path d="M8.4,83.3C9.1,84,8.3,83.7,8,83.9c-0.6,0.3-0.8,0-0.9-0.6C7.5,83.3,7.9,83.3,8.4,83.3z"/>
		<path d="M24.4,48.4c0.3,1,1.2,1.8,1.1,3c0,0.3,0,0.6,0.3,0.6c0.7,0.1,0.6,0.5,0.5,1c-0.1,0.6-0.1,1.2,0.9,1.1c0,0.2,0,0.3,0,0.5
			c-0.5,0-0.9,0.2-0.8,0.7c0.1,0.5,0.5,0.3,0.8,0.3c0.1,2.9,0.1,5.8,0,8.7c-0.4,0.2-0.4,0.5-0.4,0.9c0,3.6,0,7.1,0,10.7
			c0,0.3,0,0.6,0.3,0.8c0,0.2,0,0.3,0,0.5c-0.1,0-0.2,0-0.3,0c-0.1-0.1-0.2-0.2-0.3-0.3c0-1.1,0-2.2,0-3.3c-0.1,0-0.2,0-0.2,0
			c0,1.1,0,2.2,0,3.3c-0.8,0.3-0.9-0.7-1.6-0.8c0-3.5,0-7.1,0-10.6c0-0.4,0.2-1-0.4-1.2C24.3,59,24.3,53.7,24.4,48.4z"/>
		<path d="M27.2,76.6c-0.3-0.2-0.3-0.5-0.3-0.8c0-3.6,0-7.1,0-10.7c0-0.3-0.1-0.7,0.4-0.9C27.4,68.4,27.3,72.5,27.2,76.6z"/>
		<path d="M28.4,83.1c0.5-0.1,1.2-0.1,1.2-0.9c0.2,0,0.5,0,0.5-0.1c0.3-1,0.8-0.5,1.1-0.2c0.3,0.3,0.6,0.2,1,0.2
			c0.1,0.3,0.3,0.5,0.4,0.8C31.1,83.6,29.8,83.9,28.4,83.1z"/>
		<path d="M41.6,83c-0.9,0.8-1.9,0.6-2.9,0.5c-0.2-0.2-0.3-0.2-0.5,0c-0.2-0.1-0.3-0.2-0.3-0.4c0.3-0.1,0.6-0.4,0.6-0.8
			c0.4,0,0.8,0,1.2,0c0.2,0.7,0.6,0.6,1,0.2c0.2,0.1,0.4,0.2,0.6,0C41.4,82.7,41.5,82.8,41.6,83z"/>
		<path d="M31.2,78c-1.2,0.8-3.3,0.6-3.9-0.3C28.6,77.9,29.9,77.6,31.2,78z"/>
		<path d="M27.2,55.6c-0.3-0.1-0.8,0.1-0.8-0.3c-0.1-0.5,0.4-0.7,0.8-0.7C27.3,54.9,27.3,55.3,27.2,55.6z"/>
		<path d="M32.1,81.5c-0.2-0.1-0.7,0.1-0.7-0.3c0-0.4,0.3-0.5,0.7-0.5C32.2,81,32.2,81.2,32.1,81.5z"/>
		<path d="M26.9,77.2c0.1,0,0.2,0,0.3,0c0,0.2,0.1,0.4,0.1,0.6c-0.2,0-0.3,0-0.5,0C26.9,77.5,26.9,77.3,26.9,77.2z"/>
		<path d="M69.5,82.5c0.3,0,0.6,0.1,0.9,0.1c0,0,0,0.1,0,0.1c-0.1,0.5-0.5,0.6-0.9,0.6c-0.3-0.3-0.5-0.3-0.8,0
			c-0.4-0.1-0.9-0.1-1.3,0c-1.5,0-3.1,0-4.6,0c0-0.1,0-0.2,0-0.3c1.6-0.4,3.3,0.2,4.9-0.2c0.3-0.2,0.7-0.3,1-0.5
			C68.8,82.8,69.1,82.9,69.5,82.5z"/>
		<path d="M61.6,82.9c-1.3,0.8-2.9,0.8-3.6,0.2c0.8-0.2,0.7-0.8,0.8-1.4c0.1,0,0.2,0,0.3,0c0.3,1.5,1.6,0.8,2.4,1c0,0,0.1,0,0.1,0
			L61.6,82.9z"/>
		<path d="M60.2,77.9c0,0.4-0.3,0.5-0.6,0.5c-0.8-0.1-1.7-0.1-2.5-0.6C58.2,77.8,59.2,77.7,60.2,77.9z"/>
		<path d="M61.3,80c-0.4-0.2-0.4-0.5,0-0.8C61.4,79.4,61.4,79.7,61.3,80z"/>
		<path d="M68.5,78c0,0.3,0,0.6-0.4,0.7C68.1,78.4,68,78,68.5,78z"/>
		<path d="M68,79.5c0.3,0.2,0.2,0.4-0.1,0.5C67.8,79.8,67.8,79.6,68,79.5z"/>
		<path d="M29.4,86c0.2-0.4,0.5-0.4,0.9-0.4c0.8,0,1.6,0,2.4,0c1.8,0,3.5,0.1,5.3-0.5c1.3-0.5,2.7-0.1,4,0.2c1.6,0.4,3.3,0.2,5,0.3
			c0.4,0,1-0.2,1.3,0.3c-1.8,0.2-3.6,0.1-5.4,0.1C38.4,86,33.9,86.2,29.4,86z"/>
		<path d="M64.8,86c0.1-0.3,0.3-0.4,0.6-0.4c2.6,0,5.1,0,7.7,0c0.2,0,0.4,0.1,0.5,0.3C70.7,86.2,67.8,86.1,64.8,86z"/>
		<path d="M51.7,86c0.2-0.4,0.5-0.4,0.9-0.4c1.4,0,2.8,0,4.2,0c0.3,0,0.7-0.1,0.9,0.4C55.7,86.1,53.7,86.1,51.7,86z"/>
		<path d="M59.2,86c0.8-0.5,3.3-0.6,4.1,0C62,86.2,60.6,86.2,59.2,86z"/>
		<path d="M26.1,85.9c0.9-0.4,1.7-0.6,2.6,0.1C27.8,86.1,26.9,86.1,26.1,85.9z"/>
		<path d="M7.8,86c0.7-0.6,1.4-0.6,2.1,0C9.2,86.1,8.5,86.1,7.8,86z"/>
		<path d="M15.3,74.1c-0.2-2.6-0.3-5.1-0.2-7.7c0.7-0.1,0.5-0.7,0.5-1.1c0-1.7,0-3.4,0-5c0-3,0-5.9,0-8.9c0-0.5-0.1-1.2,0.8-1.1
			c0,3.7,0,7.5,0,11.2c0.1,0,0.2,0,0.2,0c0-3.7,0-7.5,0-11.2c0-3.5,0-7,0-10.5c0-0.5,0-1,0-1.5c0-0.3,0.2-0.5,0.5-0.5
			c0,0.3,0,0.5,0,0.8c-0.4,0.3-0.3,0.8-0.3,1.2c0,2.4,0,4.7,0,7.1c0,0.4-0.1,0.9,0.2,1.2c0,0.7,0,1.4,0,2.1c-0.4,0.7-0.4,1.4,0,2
			c0.1,8,0.1,16.1-0.1,24.1c-1,0-1.7-0.3-1.3-1.5C15.8,74.3,15.7,74.1,15.3,74.1z"/>
		<path d="M24.4,64.3c0.6,0.3,0.4,0.8,0.4,1.2c0,3.5,0,7.1,0,10.6c0,0.2,0,0.3,0,0.5c0,0.3,0,0.5,0,0.8c0,0.2,0,0.5-0.3,0.6
			c-0.2,0-0.2-0.2-0.2-0.3c0-3.8,0-7.6,0-11.5C24.3,65.6,24.4,64.9,24.4,64.3z"/>
		<path d="M24.3,77.7c0,0.2,0,0.4,0.2,0.3c0.3-0.1,0.3-0.3,0.3-0.6c0.3-0.3,0.3-0.5,0-0.8c0-0.2,0-0.3,0-0.5c0.6,0,0.8,1,1.6,0.8
			c0.1,0,0.2,0,0.2,0c0.1,0.1,0.2,0.2,0.3,0.3c0,0.2,0,0.3,0,0.5c-0.2,0.4-0.5,0.7-1,0.8c-0.9,0.1-1.8,0.2-2.7,0.3
			c-0.7,0.1-0.9-0.2-0.9-0.9C22.9,77.8,23.6,77.7,24.3,77.7z"/>
		<path d="M17.1,47.9c-0.4-0.3-0.2-0.8-0.2-1.2c0-2.4,0-4.7,0-7.1c0-0.4-0.1-0.9,0.3-1.2C17.3,41.6,17.3,44.8,17.1,47.9z"/>
		<path d="M24.5,38.7c1,0.5,0.8,1.5,0.8,2.3c-0.1,1.2-0.2,2.4-0.2,3.6c0,0.4-0.1,0.7-0.6,0.8C24.3,43.1,24.3,40.9,24.5,38.7z"/>
		<path d="M17.1,52c-0.4-0.7-0.4-1.4,0-2C17.3,50.7,17.3,51.3,17.1,52z"/>
		<path d="M53.3,80.8c-2.8,0.1-5.6,0.2-8.4,0c0-0.2,0-0.4,0-0.6c0.2-0.1,0.4-0.3,0.5-0.2c2.6,0.1,5.3-0.3,7.9,0.3
			C53.3,80.4,53.3,80.6,53.3,80.8z"/>
		<path d="M58.7,81.7c0-0.6-0.3-0.9-1-0.8c-0.9,0-1.7,0-2.6-0.1c-0.1-0.5-0.6-0.3-0.8-0.6c0.4-0.5,0.9,0,1.3,0c0.9,0,1.8,0,2.7-0.1
			c0.4,0,0.9-0.4,1.1,0.1c0.2,0.5,0.4,1.2-0.4,1.5C58.9,81.7,58.8,81.7,58.7,81.7z"/>
		<path d="M53.6,63c-0.2-2.3-0.2-4.6,0-6.9c0.5,0.9,0.2,1.9,0.2,2.8C53.8,60.3,54.1,61.7,53.6,63z"/>
		<path d="M53.6,77.4c0-0.9,0-1.9,0.1-2.8c0.6,0,1,0.1,0.9,0.8c0,0.7,0,1.4,0,2c0,0.7-0.3,0.7-0.8,0.4
			C53.8,77.7,53.8,77.5,53.6,77.4z"/>
		<path d="M44.8,80.2c0,0.2,0,0.4,0,0.6c-0.7,0.2-1.4,0.2-2.1,0C43.4,80.2,44.1,80.2,44.8,80.2z"/>
		<path d="M54.3,80.2c0.2,0.3,0.7,0.1,0.8,0.6c-0.6,0.2-1.2,0.2-1.8,0c0-0.2,0-0.4,0-0.6C53.7,80.2,54,80.2,54.3,80.2z"/>
		<path d="M46.2,75.8c0.2,0.4,0.1,0.7,0,1.1C45.7,76.5,45.7,76.2,46.2,75.8z"/>
		<path d="M40.7,82.5c-0.4,0.4-0.8,0.4-1-0.2C40,82.3,40.4,82.1,40.7,82.5z"/>
		<path d="M53.6,77.4c0.2,0.1,0.2,0.3,0.2,0.5c-0.3,0.1-0.6,0.5-0.8-0.1C53.2,77.6,53.4,77.5,53.6,77.4z"/>
		<path d="M41.5,80.7c-0.1,0.3-0.1,0.5-0.2,0.8C40.8,81.1,41.1,80.9,41.5,80.7z"/>
		<path d="M55.1,78.2c0.1,0.1,0.1,0.2,0.2,0.3C55,78.5,55.2,78.2,55.1,78.2L55.1,78.2z"/>
		<path d="M55.1,78.2c0,0-0.1,0-0.1-0.1C55,78.1,55.1,78.1,55.1,78.2C55.1,78.2,55.1,78.2,55.1,78.2z"/>
		<path d="M62.8,83.3c1.5,0,3.1,0,4.6,0c-0.1,0.4-0.4,0.5-0.8,0.5c-1.1,0-2.3,0-3.4,0C63,83.8,62.4,83.9,62.8,83.3z"/>
		<path d="M82,83.1c0,0.1,0,0.3,0,0.4c-0.8,0.1-1.8,0.9-2.3-0.4C80.5,83,81.3,83,82,83.1z"/>
		<path d="M68.7,83.3c0.3-0.3,0.5-0.3,0.8,0C69.2,83.6,69,83.6,68.7,83.3z"/>
		<path d="M38.2,83.5c0.2-0.2,0.3-0.3,0.5,0C38.5,83.8,38.3,83.8,38.2,83.5z"/>
		<path d="M44.8,39.5c-0.9,0-1.7,0-2.6,0c-1.1,0-1.8-0.5-1.8-1.7c0-2.2-0.1-4.4,0-6.7c0.1-1.3,0.6-1.7,2.3-1.8
			C45,29.3,45,29.3,45,27c0-1.6,0.1-1.8,1.8-2c2.1-0.2,4.3-0.2,6.4,0c1.5,0.1,2,0.7,1.9,2.3c-0.1,2.2-0.1,2.2,2.1,2.2
			c2,0,2.3,0.3,2.4,2.3c0,1.8,0,3.6-0.1,5.4c-0.1,1.9-0.6,2.4-2.5,2.4c-1.9,0-1.9,0-1.9,1.8c-0.6,0-0.5-0.8-1-1.1c0,0.4,0,0.7,0,1
			c0,1.2-0.5,1.8-1.7,1.6c-1.8-0.2-3.6,0.4-5.4-0.2c-0.8-0.3-1.1-0.6-1.1-1.3c0-0.5,0-0.9,0-1.4C45.7,39.3,45.4,38.9,44.8,39.5z
			 M48,40.2c-1,0-0.3-1-0.8-1.3c0,0.7,0,1.4,0,2.1c0.3-0.1,0.6-0.4,1-0.3c0.8,0.1,1.6,0.1,2.3,0.2c0,0.5,0,1.1,0.7,0.6
			c0.6-0.5,1.3-0.8,1.8-1.3c-0.3-0.4-0.6-0.5-1-0.5c-0.1-0.5-0.1-1,0-1.5c1.1-0.2,0.7-1,0.6-1.6c1-0.4,2-0.4,3.1-0.3
			c0,0.2,0,0.5,0.3,0.5c0.3,0,0.3-0.3,0.3-0.5c0.1,0,0.2-0.1,0.2-0.1c1-0.7,1.1-1.9,0.2-2.6c-0.1-0.3-0.1-0.5-0.2-0.8
			c-0.1-0.3,0.2-0.8-0.3-0.8c-0.3-0.1-0.4,0.4-0.5,0.6c-0.6,0-1.3,0-1.9,0c-1.2,0-1.8-0.5-1.7-1.8c0.3-0.2,0.2-0.4,0-0.5
			c-0.1-0.7-0.1-1.4-0.2-2.1c-0.4-0.8-1-0.5-1.6-0.2C48.1,28,48.1,28,48,29.8c-0.2,2.8-0.2,2.8-3.1,2.8c-0.4,0-1.1-0.2-1.3,0.3
			c-0.3,1-0.3,2.1,0,3c0.2,0.6,1.1,0.4,1.6,0.4c2.6,0.1,2.7,0.2,2.8,2.8C48.1,39.4,48,39.8,48,40.2z M55.4,38.7c0.5,0.2,1,0.3,1.8,0
			C56.4,38.7,55.9,38.7,55.4,38.7z M51.9,41.4c0,0.1-0.1,0.1-0.1,0.2c0.1,0,0.2,0.1,0.2,0.1c0.1,0,0.1-0.1,0.1-0.2
			C52.1,41.4,52,41.4,51.9,41.4z M42.4,38.9c0.1,0,0.1-0.1,0.2-0.1c-0.1,0-0.1-0.1-0.2-0.1c-0.1,0-0.1,0.1-0.2,0.1
			C42.3,38.9,42.3,38.9,42.4,38.9z M56.8,37.2c-0.1,0-0.1,0.1-0.2,0.1c0.1,0,0.1,0.1,0.2,0.1c0.1,0,0.1-0.1,0.2-0.1
			C56.9,37.2,56.8,37.2,56.8,37.2z M54.7,36.9c-0.1,0-0.1,0.1-0.2,0.1c0.1,0,0.1,0.1,0.2,0.1c0.1,0,0.1-0.1,0.2-0.1
			C54.8,37,54.8,37,54.7,36.9z"/>
		<path d="M44.8,39.5c0.6-0.6,0.9-0.2,1,0.4c0.1,0.5,0,0.9,0,1.4c0,0.7,0.3,1,1.1,1.3c1.8,0.6,3.6,0,5.4,0.2
			c1.2,0.1,1.7-0.5,1.7-1.6c0-0.3,0-0.6,0-1c0.5,0.3,0.3,1,1,1.1c0,0.2,0,0.4,0,0.5c-0.3,0-0.8,0-0.7,0.5c0.1,0.3,0.4,0,0.6,0
			c0,1-0.6,1.6-1.6,1.7c-2.3,0.3-4.7,0.2-7,0c-0.9-0.1-1.4-0.7-1.5-1.6C44.9,41.4,44.8,40.4,44.8,39.5z"/>
		<path d="M55,42.3c-0.2-0.1-0.6,0.3-0.6,0c-0.1-0.5,0.3-0.4,0.7-0.5C55,41.9,55,42.1,55,42.3z"/>
		<path d="M15.6,60.2c0,1.7,0,3.4,0,5c0,0.4,0.2,1-0.5,1.1c0-2.1,0-4.1,0-6.2C15.2,60.2,15.4,60.2,15.6,60.2z"/>
		<path d="M16.6,50.2c0,3.7,0,7.5,0,11.2c-0.1,0-0.2,0-0.2,0c0-3.7,0-7.5,0-11.2C16.4,50.2,16.5,50.2,16.6,50.2z"/>
		<path d="M16.3,47c-0.1,0.3,0.2,0.8-0.3,0.8c-0.4,0-0.5-0.4-0.4-0.8c0-0.3-0.1-0.8,0.4-0.8C16.4,46.2,16.3,46.7,16.3,47z"/>
		<path d="M16.6,38.2c0,0.5,0,1,0,1.5C16.2,39.2,16.2,38.7,16.6,38.2z"/>
		<path d="M69.5,82.5c-0.4,0.4-0.7,0.3-0.8-0.2C69,82.3,69.3,82.2,69.5,82.5z"/>
		<path d="M8,84.7c0-0.1,0-0.1,0-0.1c0,0,0.1,0,0.1,0C8,84.5,8,84.6,8,84.7z"/>
		<path d="M26.6,76.9c-0.1,0-0.2,0-0.2,0c0-1.1,0-2.2,0-3.3c0.1,0,0.2,0,0.2,0C26.6,74.7,26.6,75.8,26.6,76.9z"/>
		<path d="M24.8,76.6c0.3,0.3,0.3,0.5,0,0.8C24.8,77.1,24.8,76.9,24.8,76.6z"/>
		<path d="M50.5,40.9c0.8-0.1,1.4-0.3,1.5-1.3c0.4,0,0.7,0.1,1,0.5c-0.5,0.5-1.2,0.8-1.8,1.3C50.5,42.1,50.5,41.4,50.5,40.9z"/>
		<path d="M56.4,36.1c0.1-0.9,0.1-1.7,0.2-2.6C57.5,34.3,57.4,35.4,56.4,36.1z"/>
		<path d="M51.9,38.2c-0.2-0.7,0-1.2,0.6-1.6C52.6,37.2,53.1,38,51.9,38.2z"/>
		<path d="M48,40.2c0.1,0.2,0.1,0.4,0.2,0.5c-0.4-0.1-0.6,0.2-1,0.3c0-0.7,0-1.4,0-2.1C47.7,39.3,47,40.3,48,40.2z"/>
		<path d="M51.8,28.1c-0.5-0.1-1-0.2-1.6-0.2C50.8,27.6,51.4,27.3,51.8,28.1z"/>
		<path d="M56.4,32.8c-0.3,0-0.6,0-0.8-0.3c0.1-0.2,0.2-0.7,0.5-0.6C56.6,32,56.3,32.5,56.4,32.8z"/>
		<path d="M55.4,38.7c0.5,0,1,0,1.8,0C56.4,39,55.9,38.9,55.4,38.7z"/>
		<path d="M55.6,36.3c0.2,0,0.4,0,0.5-0.1c0,0.2,0,0.5-0.3,0.5C55.6,36.8,55.6,36.5,55.6,36.3z"/>
		<path d="M51.9,41.4c0.1,0,0.1,0.1,0.2,0.1c0,0.1,0,0.2-0.1,0.2c-0.1,0-0.1-0.1-0.2-0.1C51.9,41.5,51.9,41.4,51.9,41.4z"/>
		<path d="M52,30.7c-0.1-0.2-0.2-0.3,0-0.5C52.3,30.4,52.4,30.5,52,30.7z"/>
		<path d="M42.4,38.9c-0.1,0-0.1-0.1-0.2-0.1c0.1,0,0.1-0.1,0.2-0.1c0.1,0,0.1,0.1,0.2,0.1C42.5,38.9,42.5,38.9,42.4,38.9z"/>
		<path d="M56.8,37.2c0.1,0,0.1,0.1,0.2,0.1c-0.1,0-0.1,0.1-0.2,0.1c-0.1,0-0.1-0.1-0.2-0.1C56.6,37.2,56.7,37.2,56.8,37.2z"/>
		<path d="M54.7,36.9c0.1,0,0.1,0.1,0.2,0.1c-0.1,0-0.1,0.1-0.2,0.1c-0.1,0-0.1-0.1-0.2-0.1C54.6,37,54.6,37,54.7,36.9z"/>
	</g>
</g>
<g id="Layer_5" class="st0">
	<g class="st7">
		<path class="st11" d="M92.6,70c-2.8,0-5.5,0-8.3,0.1c-0.8,0-1.8,0.3-2.4-0.1c-0.6-0.4-0.3-1.5-0.4-2.2c-0.9-4.3-4.6-7.7-8.9-8.3
			C68,58.7,63.6,61,61.6,65c-0.7,1.4-1.1,2.8-1.1,4.4c0,0.5-0.1,0.7-0.7,0.7c-6.6,0-13.1,0-19.7,0c-0.3,0-0.6,0-0.7-0.5
			c0-1.4-0.3-2.7-0.9-4.1c0.4,0,0.7,0,1,0c4.3,0,8.7,0,13,0c3.3,0,5.3-1.9,5.3-5.3c0-8.7,0-17.4,0-26.1c0-3.4-2-5.3-5.3-5.3
			c-11.7,0-23.4,0-35.1,0c-2.7,0-4.6,1.4-5.3,3.7c-0.2,0.5-0.2,1.1-0.2,1.6c0,8.7,0,17.3,0,26c0,3.2,2.3,5.4,5.4,5.3
			c0.6,0,1.2,0,1.8,0c-0.6,1.4-0.9,2.8-0.9,4.2c0,0.3-0.2,0.3-0.4,0.4c-6,0.4-10.3-4.1-10.4-9.2c-0.1-5.2,0-10.4,0-15.6
			c0-3.7,0-7.4,0-11.1c0-5.9,4.1-10,10-10c11.1,0,22.2,0,33.2,0c1.6,0,3.2-0.1,4.7,0.3c4,1,6.9,4.6,7.1,8.7c0,0.7,0.1,1.5,0,2.2
			c0,0.6,0.1,0.8,0.8,0.8c4.7,0,9.3,0,14,0c0.7,0,0.9,0.3,1.1,0.9c0.8,3.3,1.7,6.6,2.5,10c0.1,0.5,0.4,0.7,0.9,0.7
			c1.6,0,3.2-0.1,4.6,0.6c2.6,1.3,3.7,3.5,3.7,6.4c0,3.3,0,6.6,0,10c0,0.6,0.1,0.9,0.8,0.8c0.6-0.1,1.2,0,1.8,0
			C92.6,67,92.6,68.5,92.6,70z"/>
		<path d="M37.2,52.7c0,0.8,0,1.6,0,2.4c0,0.5-0.2,0.6-0.7,0.6c-1.1,0-2.2,0-3.3,0c-0.5,0-0.6-0.1-0.6-0.6c0-1.7,0-3.3,0-5
			c0-0.6-0.1-0.8-0.7-0.8c-1.6,0-3.3,0-4.9,0c-0.6,0-0.7-0.2-0.7-0.7c0-1.1,0-2.2,0-3.2c0-0.5,0.1-0.6,0.6-0.6c1.7,0,3.3,0,5,0
			c0.6,0,0.8-0.1,0.8-0.7c0-1.6,0-3.3,0-4.9c0-0.6,0.2-0.7,0.7-0.7c1.1,0,2.2,0,3.2,0c0.5,0,0.6,0.1,0.6,0.6c0,1.7,0,3.3,0,5
			c0,0.6,0.1,0.8,0.7,0.8c1.6,0,3.3,0,4.9,0c0.6,0,0.7,0.2,0.7,0.7c0,1.1,0,2.2,0,3.2c0,0.5-0.1,0.6-0.6,0.6c-1.7,0-3.4,0-5.1,0
			c-0.5,0-0.7,0.1-0.7,0.6C37.3,50.9,37.2,51.8,37.2,52.7z"/>
		<path class="st12" d="M71,75.8c-3.3,0-6.1-2.7-6-6c0-3.3,2.7-6,6-6c3.3,0,6,2.8,6,6C77,73.1,74.3,75.8,71,75.8z M72.9,69.8
			c0-1-0.9-1.9-1.9-1.9c-1,0-1.8,0.9-1.8,1.9c0,1,0.9,1.8,1.8,1.9C72,71.7,72.9,70.8,72.9,69.8z"/>
		<path class="st12" d="M28.9,75.8c-3.3,0-6-2.7-6-5.9c0-3.3,2.7-6.1,6-6.1c3.3,0,6,2.8,6,6C34.9,73.1,32.2,75.8,28.9,75.8z
			 M27,69.8c0,1,0.8,1.9,1.8,1.9c1,0,1.9-0.8,1.9-1.8c0-1.1-0.8-1.9-1.8-1.9C27.9,68,27.1,68.8,27,69.8z"/>
	</g>
</g>
<g id="Layer_6">
	<path class="st12" d="M96.9,59.5c-0.1,0-0.2,0.1-0.2,0.3c-0.7,1.5-1.8,2.2-3.5,2.2c-4.8,0-9.6,0-14.4,0c-2,0-3-0.8-3.7-2.7
		c-1.4-3.8-2.8-7.5-4.2-11.3c-0.1-0.2-0.2-0.4-0.3-0.7c-1.3,3.1-2.6,6.2-3.9,9.2c-0.9,2-1.7,4-2.6,6c-1.2,2.6-4.2,3.1-5.9,0.9
		c-0.5-0.6-0.6-1.3-0.8-2c-2.1-7.7-4.1-15.4-6.2-23.1c0-0.1,0-0.3-0.3-0.4c-0.3,1.8-0.7,3.5-1,5.3c-2.3,11.9-4.6,23.8-6.9,35.7
		c-0.5,2.7-1,5.3-1.5,8c-0.4,1.9-1.6,3.1-3.2,3.2c-1.8,0.1-3.1-1-3.6-2.9c-2.5-9.8-5-19.7-7.5-29.5c-0.1-0.3-0.2-0.6-0.3-1
		c-0.6,1.6-1.2,3.1-1.7,4.5c-0.7,1.9-1.8,2.7-3.8,2.7c-4.9,0-9.9,0-14.8,0c-1.8,0-3.2-1.3-3.4-3c-0.2-1.7,0.9-3.3,2.6-3.7
		c0.4-0.1,0.8-0.1,1.3-0.1c3.9,0,7.8,0,11.6,0c0.6,0,0.8-0.2,1-0.7c1.5-4,3-8,4.5-12c0.5-1.5,1.5-2.4,3.1-2.5
		c1.5-0.1,2.8,0.7,3.3,2.1c0.7,2,1.1,4.1,1.6,6.1c1.8,6.8,3.5,13.7,5.2,20.7c0.5-1.2,0.6-2.3,0.8-3.4c2.9-15.1,5.8-30.1,8.7-45.2
		c0.3-1.6,1.1-2.7,2.7-3.1c1.4-0.3,2.5,0.1,3.4,1.2c0.4,0.5,0.6,1.1,0.8,1.7c2.4,8.9,4.8,17.9,7.2,26.8c0.2,0.7,0.4,1.3,0.6,2.1
		c0.3-0.3,0.4-0.6,0.5-1c1.8-4.2,3.7-8.5,5.5-12.8c0.6-1.4,1.5-2.3,3.1-2.4c1.6-0.1,2.9,0.8,3.5,2.5c1.3,3.4,2.6,6.9,3.9,10.4
		c0.9,2.3,1.7,4.6,2.5,6.9c0.2,0.6,0.5,0.7,1,0.7c3.6,0,7.3,0,10.9,0c2.1,0,3.6,0.7,4.4,2.7C96.9,58.4,96.9,58.9,96.9,59.5z"/>
</g>
</svg>
